<svg xmlns="http://www.w3.org/2000/svg" xml:space="preserve" width="300" height="61" style="shape-rendering:geometricPrecision;text-rendering:geometricPrecision;image-rendering:optimizeQuality;fill-rule:evenodd;clip-rule:evenodd" viewBox="0 0 34.7 7.06"><path d="M13.76 5.59h-.97l-.27-.85h-1.58l-.3.85H9.7l1.53-4.12h1.02l1.51 4.12zm-1.49-1.56-.53-1.63h-.02l-.54 1.63h1.09zm3.37.82c.13.07.27.1.43.1.19 0 .34-.03.46-.08.12-.06.21-.13.28-.21.08-.08.13-.16.16-.25.04-.09.06-.17.08-.23h.89c-.05.26-.13.48-.24.67-.11.19-.25.35-.41.47-.16.13-.34.22-.54.28-.2.06-.42.09-.64.09-.32 0-.6-.05-.84-.15-.25-.1-.45-.25-.62-.43-.17-.19-.3-.42-.38-.69-.09-.26-.13-.56-.13-.89 0-.25.02-.48.07-.69.05-.2.12-.38.21-.54.09-.16.2-.3.32-.42.12-.11.25-.21.4-.29.14-.07.29-.13.45-.16.16-.04.32-.06.48-.06.24 0 .44.02.62.07s.34.11.47.19a1.623 1.623 0 0 1 .59.58c.06.11.1.21.13.32.03.11.05.21.06.3h-.89c-.01-.04-.03-.09-.05-.14a.507.507 0 0 0-.07-.15.572.572 0 0 0-.11-.16.763.763 0 0 0-.17-.13c-.07-.04-.15-.07-.24-.1-.1-.02-.21-.03-.34-.03-.05 0-.11 0-.19.02-.07.01-.15.03-.22.07-.08.04-.16.09-.23.15-.08.07-.15.15-.2.26-.06.1-.11.23-.15.38-.03.15-.05.33-.05.53 0 .22.02.42.07.6.05.17.12.32.21.44.09.13.2.22.33.28zm2.6-3.38h3.49v.71h-1.3v3.41h-.89V2.18h-1.3v-.71z" style="fill:#439536;fill-rule:nonzero"/><path d="M23.78 1.47h2.77v.71h-1.91v3.41h-.86V1.47zm4.21 4.06c-.25-.11-.45-.26-.62-.46a2.12 2.12 0 0 1-.37-.68 2.98 2.98 0 0 1-.12-.86c0-.31.04-.59.12-.85.09-.27.21-.5.37-.69.17-.19.37-.34.62-.45.25-.11.54-.17.87-.17.3 0 .58.06.82.17.25.11.45.26.63.45.17.19.3.42.39.69a2.673 2.673 0 0 1 0 1.71c-.09.26-.22.49-.39.68-.18.2-.38.35-.63.46-.24.11-.52.16-.82.16-.33 0-.62-.05-.87-.16zm-.25-2c0 .21.03.4.08.57.05.17.12.32.22.45a1.018 1.018 0 0 0 .82.4 1.018 1.018 0 0 0 .82-.4c.1-.13.17-.28.22-.45a2.012 2.012 0 0 0 0-1.13c-.05-.18-.12-.33-.22-.45-.1-.13-.21-.23-.35-.3-.14-.07-.29-.1-.47-.1s-.33.03-.47.1c-.14.07-.26.17-.35.3-.1.12-.17.27-.22.45-.05.17-.08.36-.08.56zm4.69-.37h.72c.08 0 .15-.01.22-.03.08-.03.14-.06.19-.11.05-.04.1-.1.13-.16a.604.604 0 0 0-.02-.52.493.493 0 0 0-.17-.18.989.989 0 0 0-.24-.09c-.09-.02-.18-.02-.27-.02-.11 0-.21.01-.29.03-.09.02-.16.05-.22.09-.06.04-.11.08-.15.13-.04.04-.07.09-.1.13-.02.05-.04.09-.05.13 0 .04-.01.07-.01.1h-.79c0-.06.01-.13.02-.22a1.101 1.101 0 0 1 .26-.55c.07-.1.17-.18.3-.26.12-.08.28-.14.46-.19.18-.04.39-.07.64-.07.26 0 .49.04.68.11.19.07.35.16.47.26.12.11.21.24.27.37.05.13.08.27.08.39 0 .08-.01.15-.02.23a.72.72 0 0 1-.1.24c-.05.08-.11.15-.2.21-.08.07-.18.12-.31.16v.01c.04.01.09.03.14.05.06.01.11.04.17.07.06.03.11.07.17.12.05.04.1.11.14.18.05.07.08.16.11.26s.04.22.04.36c0 .18-.04.34-.12.5-.07.16-.18.3-.33.42-.15.12-.33.21-.54.28-.22.07-.47.1-.74.1-.15 0-.29 0-.43-.02s-.27-.04-.4-.08c-.12-.04-.24-.09-.35-.16-.1-.06-.2-.14-.28-.24a.922.922 0 0 1-.18-.34c-.05-.13-.07-.28-.07-.46h.79c0 .07.02.14.05.22.03.07.08.14.16.2.07.06.17.11.28.15.12.04.26.06.43.06.16 0 .29-.02.4-.06.11-.03.2-.08.27-.14a.51.51 0 0 0 .15-.21c.03-.08.05-.16.05-.24a.57.57 0 0 0-.23-.49.584.584 0 0 0-.22-.08c-.08-.01-.15-.02-.22-.02h-.74v-.62z" style="fill:#0476c6;fill-rule:nonzero"/><path style="fill:none" d="M0 0h7.06v7.06H0z"/></svg>