<svg xmlns="http://www.w3.org/2000/svg" viewBox="0 0 126 37" height="37" width="126" class="logo_1PW9z"><path fill-rule="evenodd" clip-rule="evenodd" d="M106.109 13.864H108.831V27.4212H113.068V9.64087H101.916V27.4212H106.109V13.864Z" fill="#316da4"></path><path fill-rule="evenodd" clip-rule="evenodd" d="M96.0727 13.9534H100.176V9.64087H91.7456V27.4212H96.0727V13.9534Z" fill="#316da4"></path><path fill-rule="evenodd" clip-rule="evenodd" d="M62.7961 27.4212H67.034V13.864H70.8829V9.64087H58.9473V13.864H62.7961V27.4212Z" fill="#316da4"></path><path fill-rule="evenodd" clip-rule="evenodd" d="M77.2038 13.864H79.9252V27.4212H84.1626V9.64087H73.0107V27.4212H77.2038V13.864Z" fill="#316da4"></path><path fill-rule="evenodd" clip-rule="evenodd" d="M51.4803 23.7023C50.1849 23.8246 49.2422 23.3199 47.5232 21.9518L46.1277 24.8351C47.5031 26.4195 49.3941 27.3983 51.4803 27.3983C56.0399 27.3885 59.155 24.2687 59.0986 18.5206C59.0986 13.6203 55.6854 9.64111 51.4803 9.64111C49.3711 9.64111 47.4622 10.6424 46.0811 12.2585L48.0176 15.2705C48.8325 14.0938 50.0807 13.3383 51.4803 13.3383C52.4978 13.3383 53.4375 13.7374 54.1868 14.4082C54.8688 15.0207 55.0408 15.8565 55.0783 16.8226H49.4454V20.2723H55.1859C55.2152 20.9229 55.0432 21.5112 54.6507 22.0124C53.8387 23.0506 52.7809 23.7023 51.4803 23.7023Z" fill="#316da4"></path><path fill-rule="evenodd" clip-rule="evenodd" d="M119.268 23.9556V19.8968H120.531C121.423 19.8968 121.915 20.4067 121.915 21.8861C121.915 23.3661 121.245 23.8921 120.666 23.9389C120.132 23.9833 119.268 23.9556 119.268 23.9556ZM125.914 21.7327C125.914 16.6357 121.364 16.1887 120.16 16.1887H119.268V13.6855H124.888V9.64111H115.298V27.4214H120.65C121.499 27.4214 125.914 26.8291 125.914 21.7327Z" fill="#316da4"></path><path fill-rule="evenodd" clip-rule="evenodd" d="M32.1151 18.2155C32.9807 16.8669 31.9973 15.9937 31.5251 15.2796C31.7217 14.6848 32.2335 13.1776 30.2655 11.8682C30.5805 10.5189 28.9664 9.09071 27.4713 8.41695C27.4318 7.42447 24.4798 4.84644 19.4038 4.84644C14.3266 4.84644 11.4535 6.94955 11.4535 6.94955C12.3586 6.55244 15.8217 5.56054 19.0098 5.56054C23.8904 5.64008 25.6216 7.6625 25.6216 7.6625C25.6216 7.6625 22.3546 6.67117 17.593 6.90921C13.3426 7.06828 8.69875 9.52758 8.69875 9.52758C8.69875 9.52758 8.18702 9.96388 8.30538 10.2809C9.01379 10.0037 12.1224 8.45614 17.0813 7.82158C22.0402 7.18643 25.8183 8.85267 25.8183 8.85267C25.8183 8.85267 25.3066 9.64631 24.8343 9.88435C22.1185 9.21059 18.3803 9.17024 14.4049 9.76562C10.4306 10.3604 6.57352 13.2964 6.57352 13.2964C6.57352 13.2964 6.0618 13.8514 6.45517 14.0894C7.51807 13.4549 10.5484 11.3921 15.4678 10.5984C20.3872 9.80481 23.0242 10.4008 23.6142 10.7973C23.0242 11.1541 18.1831 11.829 14.3266 12.7016C10.4695 13.5742 7.87198 15.0416 6.6913 16.113C5.51062 17.1839 5.39284 18.9694 6.21903 20.1994C6.14013 20.5959 5.35339 21.9849 7.43916 23.0558C7.39971 23.8096 6.37627 25.2378 9.60384 26.7456C9.87943 28.5703 12.9881 30.8711 17.9469 31.5063C22.9458 32.18 25.5033 29.9582 25.5033 29.9582C25.5033 29.9582 22.6308 31.0302 18.4592 30.7126C14.6022 30.7126 11.3751 27.6182 11.3751 27.6182C11.3751 27.6182 13.3426 29.0464 19.2854 29.602C25.2672 29.84 28.4158 27.8562 28.4158 27.8562L28.652 27.4597C27.5107 27.8562 23.6542 28.7288 19.4427 28.6891C15.2317 28.6499 11.099 26.1502 11.099 26.1502L11.1779 25.6344C11.1779 25.6344 11.0601 25.277 11.4535 25.3963C11.8474 25.5151 15.1922 27.5386 21.1739 27.4193C27.1562 27.3006 30.226 25.3566 30.226 25.3566C30.226 25.3566 30.6194 24.801 30.4233 24.801C27.9436 25.7531 24.2437 26.5865 20.5444 26.5865C16.8452 26.5865 12.7131 24.6822 12.7131 24.6822L14.2871 24.0477C14.2871 24.0477 17.0024 25.1981 22.6697 25.039C28.3369 24.8805 31.7612 22.0639 31.7612 22.0639C31.7612 22.0639 31.879 21.9849 31.8401 21.7469C29.2026 23.0558 25.4644 24.0079 22.6697 24.2062C19.876 24.4044 16.8452 23.4921 16.8452 23.4921C16.8452 23.4921 19.7577 23.0955 24.4798 22.1036C29.5176 21.3498 32.1151 18.2155 32.1151 18.2155ZM29.754 12.9788C30.6395 13.2566 30.266 14.2687 30.266 14.2687C30.266 14.2687 29.0452 13.6134 29.2025 13.6134C29.3604 13.4157 29.754 12.9788 29.754 12.9788ZM26.684 10.3604C26.9203 10.3212 27.3138 9.52757 27.3138 9.52757C28.1016 10.0428 28.3773 10.4399 28.4562 10.8768C28.1805 10.7177 26.4477 10.4007 26.684 10.3604ZM25.7006 11.154C25.7006 11.154 27.7469 11.7494 28.1403 12.0266C27.983 12.5823 27.1957 12.9788 27.1957 12.9788C27.1957 12.9788 25.3856 12.2255 24.3227 12.1062C25.2283 11.7091 25.7006 11.154 25.7006 11.154ZM7.42667 18.7844L7.0596 18.7314C7.0596 18.7314 6.71826 18.0703 7.21741 17.5412C7.71541 17.0127 9.13223 15.5586 14.0385 14.3943C18.9453 13.2301 22.5394 12.754 25.2421 13.5742C25.4519 13.7062 25.1369 13.7598 25.1369 13.7598C25.1369 13.7598 18.3941 15.1603 16.2946 15.5315C14.1963 15.9021 8.84349 17.0917 7.42667 18.7844ZM8.08993 22.223C7.63686 22.0835 7.51902 21.0328 7.51902 21.0328C7.85367 21.37 8.4835 21.6674 8.4835 21.6674C8.4835 21.6674 8.26669 21.8063 8.08993 22.223ZM12.3066 18.1234C14.3787 17.4363 21.7515 16.2456 23.4044 15.8485C24.9791 15.505 27.7858 14.4998 27.7858 14.4998C27.7858 14.4998 29.3867 15.1609 29.3347 15.2669C29.2815 15.373 27.9699 16.0606 26.0545 16.6686C24.1397 17.2767 15.7434 18.8634 13.907 19.2075C12.0705 19.5516 9.70911 20.7948 9.70911 20.7948L8.58046 19.9487C9.23683 19.0496 12.3066 18.1234 12.3066 18.1234ZM9.52525 25.4159L8.83592 24.4638L8.81647 24.1468C8.87597 24.484 9.91883 24.7018 9.91883 24.7018L9.52525 25.4159ZM10.8239 23.8892C10.8239 23.8892 9.64327 23.3728 9.50547 22.9964C9.74161 22.699 10.0566 22.461 10.0566 22.461C10.7845 22.9762 11.4334 23.1347 12.0241 23.2736C11.6896 23.4131 10.8239 23.8892 10.8239 23.8892ZM13.7754 22.6194L11.8074 21.6673C12.1224 21.5613 14.143 20.7953 16.1893 20.4247C20.6759 19.7365 24.4358 19.0276 26.5267 18.3613C29.0196 17.5683 30.4884 16.351 30.4884 16.351C30.4884 16.351 30.5153 16.5101 30.541 17.6732C28.2849 20.2126 19.6262 21.4293 17.9212 21.7468C16.2156 22.0638 13.7754 22.6194 13.7754 22.6194Z" fill="#316da4"></path><path fill-rule="evenodd" clip-rule="evenodd" d="M19.0723 0C9.0791 0.00115271 0.979004 8.16694 0.979004 18.2405C0.979004 28.3134 9.0791 36.4786 19.0723 36.4798C29.0655 36.4786 37.1656 28.3134 37.1656 18.2405C37.1656 8.16694 29.0655 0.00115271 19.0723 0ZM19.0727 35.7178C9.49691 35.6999 1.75244 27.8921 1.73358 18.2404C1.75244 8.58766 9.49691 0.779216 19.0727 0.762502C28.6485 0.779216 36.3941 8.58766 36.4113 18.2404C36.3941 27.8921 28.6485 35.6999 19.0727 35.7178Z" fill="#316da4"></path></svg>