<svg xmlns="http://www.w3.org/2000/svg" xml:space="preserve" width="300" height="68" style="shape-rendering:geometricPrecision;text-rendering:geometricPrecision;image-rendering:optimizeQuality;fill-rule:evenodd;clip-rule:evenodd" viewBox="0 0 175.89 39.89"><path d="M0 29.25c1.11-.46 3.31-3.37 4.17-4.27 9.91-10.38 4.73-8.63 17.52-8.61 5.37.01 3.38.36 10.06-6.92 1.31-1.42 2.73-3.12 4.03-4.52 1.15-1.25 3.75-3.55 3.99-4.93H.06L0 29.25z" style="fill:#05aeef"/><path d="M26.88 23.76H16.49c-3.02 0-2.02.3-4.82 3.2-1.26 1.31-2.65 2.87-3.77 4.17l-5.64 6.28C1.02 38.83.89 38.58.47 39.89l39.86-.04V10.73c-1.29.4-5.38 5.4-6.49 6.61-1.22 1.34-5.04 6.42-6.96 6.42z" style="fill:#211d1e"/><path d="M49.22 10.21h16.07v3.44H59.3v16.52h-4.1V13.65h-5.98v-3.44zm22.82 4.2c-.31.31-.55.64-.73 1-.18.35-.31.69-.4.99h-4.1c.15-1.03.45-1.97.89-2.8a6.84 6.84 0 0 1 1.74-2.1c.71-.58 1.55-1.02 2.51-1.33.96-.31 2.03-.46 3.2-.46.99 0 1.91.13 2.74.39.83.26 1.58.62 2.25 1.08.67.46 1.25 1.01 1.75 1.65.5.64.91 1.34 1.25 2.11.33.77.58 1.58.75 2.45.17.86.25 1.75.25 2.67 0 1.46-.14 2.74-.43 3.83-.29 1.09-.67 2.03-1.15 2.82-.47.79-1.02 1.44-1.64 1.95-.62.51-1.26.91-1.92 1.22-.66.29-1.33.5-1.98.62-.66.12-1.26.17-1.82.17-1.2 0-2.28-.18-3.23-.54a7.74 7.74 0 0 1-2.47-1.48c-.7-.62-1.27-1.36-1.71-2.2-.45-.85-.76-1.76-.95-2.73h4.09c.14.41.31.81.52 1.21.21.4.47.76.79 1.08.32.31.71.57 1.15.76.45.2.98.29 1.59.29.76-.01 1.45-.14 2.05-.39.61-.26 1.12-.61 1.54-1.07.43-.45.75-1 .97-1.63.22-.64.33-1.35.33-2.13h-6.43v-3.29h6.38c0-.32-.04-.66-.11-1.04-.08-.38-.2-.77-.36-1.15-.17-.39-.38-.76-.65-1.13a4.32 4.32 0 0 0-.94-.97c-.37-.28-.8-.51-1.29-.68-.49-.17-1.04-.26-1.66-.26-.63 0-1.18.11-1.64.32-.45.21-.82.46-1.13.77zm33.04 15.76h-5.19l-6.07-8.84-2 2.08v6.76h-4.1V10.21h4.1v8.12l7.49-8.12h5.3l-8 8.18 8.47 11.78zm.63-9.58h7.65v3.66h-7.65v-3.66zm8.8-10.38h16.07v3.44h-5.99v16.52h-4.1V13.65h-5.98v-3.44zm21.66 19.83c-.92-.39-1.69-.93-2.34-1.63-.65-.7-1.14-1.53-1.48-2.49-.34-.96-.52-2.01-.52-3.15 0-1.14.18-2.19.52-3.15.34-.95.83-1.78 1.48-2.47.65-.7 1.42-1.24 2.34-1.63.92-.39 1.95-.58 3.1-.58 1.16 0 2.21.19 3.13.58.92.39 1.69.93 2.33 1.63.64.69 1.12 1.52 1.46 2.47.34.96.51 2.01.51 3.15 0 1.14-.17 2.19-.51 3.15-.34.96-.82 1.79-1.46 2.49-.64.7-1.41 1.24-2.33 1.63-.92.39-1.97.58-3.13.58-1.15 0-2.18-.19-3.1-.58zm-.21-5.61c.11.55.31 1.04.58 1.47.28.43.64.78 1.09 1.04.44.26.99.4 1.64.4.67 0 1.24-.13 1.69-.39.44-.26.8-.6 1.07-1.02.27-.42.45-.91.57-1.45.11-.55.16-1.12.16-1.71 0-.58-.05-1.14-.16-1.69-.12-.56-.3-1.04-.57-1.46-.27-.43-.63-.76-1.07-1.02-.45-.26-1.02-.39-1.69-.39-.65 0-1.2.13-1.64.39-.45.27-.81.61-1.09 1.04-.27.43-.47.92-.59 1.47-.12.55-.18 1.1-.18 1.66 0 .56.06 1.12.19 1.66zm18.77-8.88c.35-.21.73-.36 1.16-.46.42-.1.9-.15 1.43-.15.45 0 .9.05 1.38.16.47.11.93.28 1.38.52.44.25.87.56 1.27.94.4.39.75.86 1.05 1.42.31.56.55 1.21.72 1.96.18.75.27 1.6.27 2.56 0 1.2-.13 2.29-.38 3.29-.25.99-.63 1.85-1.15 2.56-.51.72-1.15 1.28-1.93 1.67-.78.4-1.69.6-2.74.6-.37 0-.74-.03-1.11-.11-.38-.07-.74-.19-1.1-.37-.35-.17-.69-.4-1-.7-.32-.29-.59-.66-.84-1.1h-.05v7.56h-3.78V15.37h3.61v2.12h.05c.26-.44.53-.83.82-1.15.28-.32.59-.58.94-.79zm-.6 10.97c.24.25.53.44.87.59.34.15.74.23 1.2.23.46 0 .86-.08 1.2-.23.34-.15.63-.34.87-.59.24-.24.44-.52.59-.84a5.838 5.838 0 0 0 .55-1.99c.03-.33.05-.64.05-.92 0-.51-.06-1.03-.18-1.56-.11-.52-.3-.99-.55-1.41-.26-.42-.59-.75-1.01-1.02-.42-.26-.92-.39-1.52-.39s-1.12.13-1.53.39c-.41.27-.75.6-1 1.02-.25.42-.44.89-.55 1.41a7.05 7.05 0 0 0-.18 1.56c0 .28.02.59.05.92a5.838 5.838 0 0 0 .55 1.99c.15.32.35.6.59.84zm11.99-11.15h9.77v3.12h-6v11.68h-3.77v-14.8z" style="fill:#2b2b2a;fill-rule:nonzero"/></svg>