<svg xmlns="http://www.w3.org/2000/svg" xml:space="preserve" width="299" height="109" style="shape-rendering:geometricPrecision;text-rendering:geometricPrecision;image-rendering:optimizeQuality;fill-rule:evenodd;clip-rule:evenodd" viewBox="0 0 10.35 3.76"><path d="M2.12.87c-.14 0-.3.13-.44.36-.14.23-.22.51-.22.76 0 .36.2.72.66.72.45 0 .66-.36.66-.72 0-.25-.09-.53-.23-.76C2.42 1 2.26.87 2.12.87zm3.55.54h.46v1.2h.49v-1.2h.46V.97H5.67v.44zm2.46 0h.73V.97h-.73c-.66 0-1.02.33-1.02.82 0 .49.36.82 1.02.82h.73v-.44h-.73c-.3 0-.51-.11-.51-.38s.21-.38.51-.38zM4.67.97l-.27.98-.26-.98h-.87v1.64h.49V1.28l.36 1.33h.57l.35-1.33v1.33h.5V.97h-.87z" style="fill:#e30613"/><path style="fill:none" d="M0 0h10.35v3.76H0z"/></svg>