<svg xmlns="http://www.w3.org/2000/svg" xml:space="preserve" width="6965" height="1693" style="shape-rendering:geometricPrecision;text-rendering:geometricPrecision;image-rendering:optimizeQuality;fill-rule:evenodd;clip-rule:evenodd" viewBox="0 0 7954.56 1933.12"><defs><style>.fil1{fill:#138d62}.fil0{fill:#198c63}.fil13{fill:#b05647}.fil3{fill:#dd351e}</style></defs><g id="Слой_x0020_1"><path class="fil0" d="M1859.73 75.26c6.23 4.36 4.76-12.69 5.44 10.02.89 296.53-.15 593.22.01 889.78l-3.46 883.57c-5.02 12.39-1173.29 5.72-1340.81 5.71-80 0-397.03 4.04-449.05-1.09-10.05-26.16-4.18-1401.17-4.16-1679.91L70.56 74.8c.27-.95.72-2.27 1.23-3.33 27.31-7.82 844.73-2.77 895.69-2.78l868.01-.48c21.81.05 20.97 1.58 24.24 7.05zM15.03 13.93c-8.46 49.94-2.07 175.94-2.02 234.78v715.46c-.06 99.83-5.26 932.06 2.94 951.55 8.79 5.54 1.15 2.84 14.67 4.23 39.1 4.02 1371.03.05 1535.93.03l351.63-.53 1.75-1905.41c-496.74-5.55-1015.86-.64-1515.2-.93l-389.7.82z"/><path class="fil1" d="M3302.86 1140.91c-10.49-32.64 38.75-149.06 51.73-185.05 20.32-56.35 41.38-120.17 65.4-176.53 23.37-54.82 23.72-148.64 95.71-144.76 39.74 2.15 46.36 28.65 59.16 61.87l94.88 267.57c13.01 34.98 65.53 149.4 48.96 189.31-15.29 36.81-156.08 24.68-212.5 24.68-61.28 0-185.09 19.7-203.34-37.09zm-153.48 379.57c10.19-14.22 29.36-79.85 39.54-101.95 18.89-41.02 53.84-37.51 103.19-37.47l371.09.05c187.31.03 148.3-11.83 209.17 140.11l213.52-.84c-.95-17.36-242.95-690.96-268.85-751.63-20.38-47.73-32.97-104.76-52.56-152.85l-82.35-226.82c-15.37-45.11-6.06-38.73-61.75-38.75l-176.03.11c-111.82-.22-82.45-8.18-104.83 43.16-34.75 79.7-72.71 216.08-108.94 299.61l-215.48 604.43c-14.78 49.19-76.73 193.86-78.47 224.08l212.75-1.24z"/><path d="M6694.44 1021.96c7.6-2.68 10.09-2.71 16.42-4.76-13.09 43.57-55.17 74.67-88.26 96.36-44.17 28.94-63.45 35.93-121.94 46.76-81.28 15.06-247.1 5.71-339.72 4.86l-36.12-50.01c-11.2-17.29-5.57-9.79-.6-25.55 9.96-31.64 2.38-407.85 4.42-486.78.82-31.52 9.73-41.8 30.58-53.6 11.23-6.37 374.43-29.44 443.97 30.23 26.02 22.33 33.61 19.06 72.75 60.56 7.62 8.08 11.19 13.01 19.26 23.94 11.8 15.98 12.89 12.8 14.28 32.62-.07 25.67 43.52 64.25 41.03 173.13-.83 36.58-7.31 62.38-18.92 89.97-5.82 13.85-22.09 59.02-37.15 62.27zm217.18-360c4.31-21.16-35-81.4-50.2-102.65-20.21-28.25-45.53-52.79-70.2-76.22-28.5-27.06-137.4-104.5-189.52-107.72l-146.15-20.12c-120.06-9.95-346.33 10.67-487.69-1.59l-11.37 16.41c-.58 1.01-1.39 2.03-1.9 3.09-8.31 17.35-3.42 235.41-3.48 258.54l.07 728.13c.01 11.95-4.47 134.39 5.18 143.06 25.75 13.63 137.54 7.74 168.01-.15.03-29.48 1.16-61.61-.03-90.8-3.47-85.04-7.23-66.83 203.12-64.79 31.42.3 64.07.7 95.38-.78 62.65-2.94 51.39-7.48 81.78-12.03 54.3-8.13 80.48 2.83 142.47-30.9 12.53-6.82 62.58-27 72.06-37.25 16.53-17.89-2.8-7.53 24.16-22.99 61.08-35.01 90.67-101.87 112.55-120.96 19.9-17.37 39.81-67.3 50.02-92.82 3.14-7.86 13.46-26.99 15.11-31.19 11.24-28.53 3.85-56.03 11.77-85.87 24.12-90.91 1.95-122.9-4.25-166.96-8.52-60.45-21.48-41.46-16.89-83.44z" style="fill:#df331d"/><path class="fil1" d="M1241.8 1098.35c22.82-13.63 59.11 15.73 83.05 34.7 12.87 10.21 44.5 39.84 53.35 56.54 1.86 3.5.69 4.8 3.55 9.64 19.56 6.22 6.88-.28 25.44 37.3 20.3 41.1 21.17 108.81 12.72 153.74-6.62 35.21-14.03 57.16-31.13 85.75-9.9 16.54-11.67 23.75-23.09 35.15l-7.44 7.31c-14.66 15.04-16.25 16.26-19.42 32.96 21.93-.77 17.57-.24 29.9-11.5l26.25-10.87c36.02-18.31 73.92-70.66 95.36-107.63 31.64-54.54 40.35-79.77 48.63-155.88 9.17-84.27-16.58-180.4-62.95-243.36-17.8-24.17-31.35-37.97-47.52-58.22-10.31-4.64-37.7-31.23-50.32-40.14-60.27-42.55-113.78-61.07-194.92-69.8l-580.59-.46c-13.6 29.35-79.42 201.55-80.98 222.44 38.18 4.59 476.32 1.16 554.71 1.22 52.68.04 132.14-10.8 165.4 21.11z"/><path class="fil3" d="M1294.45 1315.14c-29.07 20.89-24.17 66.17-167.22 66.03l-479.25.06c-74.41-.02-167.32-4.96-239.48.81-6.98 15.71-78.92 212.82-78.85 223.44 60.6 5.15 359.74.87 445.41.86 68.44 0 403.91 6.85 439.17-5.22 7.39-6.55 75.84-24.31 116.2-70.88 14.84-17.13-6.69-.55 24.85-29.12 33.48-30.32 59.33-102.69 54.75-130.56-1-17.23 1.14-33.62.09-50.7-1.08-17.43-5.92-20.75-8.29-33.69-10.79-59.02-10.19-54.78-41.51-101.91-9.48-14.27-33.56-36.65-50.29-46.95-11.09-6.83 7.11-5.22-18.54-8.6 4.84 15.56-1.1 2.75 7.92 15.57 13.43 19.09 20.69 47.71 23.13 73.86 3.42 36.58-2.23 73-28.09 97zm6039.56-747.66c16.85 6.62 3.91-2.5 14.08 8.85 20.28 22.65-6.24 862.78 9.22 940.28l187.76-.96c5.2-50.18 1.42-612.05 1.34-712.62-.03-39.66-.04-79.32 0-118.98.04-33.95-10.23-87.88 14.43-109.43 21-34.17 107.1-20.81 151.08-20.85 163.23-.14 172.74 21.2 191.56-44.38 6.58-22.91 9.93-28.22 16.18-46.23 8.56-24.64 22.4-74.9 34.9-88.7V351.1c-86.01-4.57-887.59-5.83-910.31 2.68-16.31 14.04-31.87 70.8-39.69 93.93-10.8 31.9-30.48 68.51-31.19 103.75l286.66.39c52.06-.15 48.25-.24 73.98 15.63z"/><path class="fil1" d="m4406.79 553.51 536.21-2.44c21.59-26.92 28-66.86 39.14-99.98 8.98-26.69 31.06-67.37 32.71-100.69l-833.74-.45c-10.89 35.83-7.7 1146.11-.89 1163.78 23.95 7.63 158.18 6.22 185.15.84 8.4-59.79 2.78-168.3 2.88-235.65.25-169.14-7.23-560.45 7.28-715.18 21.28-4.31 7.06-6.43 31.26-10.23z"/><path class="fil0" d="m1206.94 553.95 61.13.64c71.01 7.09 141.75 58.3 173.17 117.21 70.68 132.5 9.84 215.31 23.45 237.36 26.74-49.03 37.16-50.59 54.66-116.33 14.18-53.22 16-102.79 7.37-159.02-14.91-97.15-63.51-172.48-124.65-220.63-75.1-59.14-138.02-85.77-260.31-85.41-113.58.34-236.7-4.72-348.98.66-13.65 29.06-32.78 77.83-41.11 106.6-8.57 29.57-36.72 92.39-37.39 113.74 75.32 5.29 168.66.61 245.94.58 41.15-.01 82.3-.02 123.44 0 44.31.03 83.19 2.95 123.28 4.6z"/><path d="M5546.94 1049.58c17.35 1.21 40.73 12.71 56.41 20.11l64.54 55.16c7.07 7.7 10.04 13.92 16.22 22.11 40.18 53.22 46 159.78 29.26 199.01-5.92 13.85-6.22 5.43-13.11 23.97-17.77 47.81-2.11 16.55-26.73 49.18-14.83 19.66-.88 15.23-26.39 22.5-3 9.14-21.61 22.39-33.05 32.74-6.61 5.97-11.24 10.11-18.03 15.17-17.57 13.08-13.45 2.2-20.34 18.62 54.88-4.56 119.68-53.42 151.7-82.37 45.3-40.96 62.07-85.59 84.92-144.07 7.87-20.13 16.57-75.88 16.38-102.67-.67-92.86-33.98-181.8-102.77-243.24l-41.53-32.15c-33.47-29.18-102.66-65.51-149.48-70.13 4.3-20.81-1.9-6.64 5.87-16.36-60.39 20.83-54.93 14.09-131.57 13.89-49.16-.13-98.33-.02-147.49-.03-94.07 0-202.83-5.02-295.11.95-15.4 33.84-22.82 65.28-38.14 104.64-7.09 18.22-33.89 79.74-35.9 98.1 35.72 5.69 278.7 2.24 335.85 2.24 76.13.01 262.83-9.88 318.49 12.63z" style="fill:#178d63"/><path class="fil3" d="M5621.19 1208.39c-8.3 54.53-64.63 104.37-126 107.44-74.12 3.71-158.22.16-233.44.16-97.57-.01-397.59-4.7-471.31 1.06-10.87 22.87-71.05 183.89-71.06 203.78 136.55 8.64 298.41 1.11 437.71 1.08 79.6-.01 372.33 9.23 418.63-13.76 6.89-16.42 2.77-5.54 20.34-18.62 6.79-5.06 11.42-9.2 18.03-15.17 11.44-10.35 30.05-23.6 33.05-32.74 4-22.45 5.33-18.7 23.21-43.8 26.02-36.53 48.89-140.13 23.03-188.27-27.67-51.53-7.2-10.29-23.04-52.51l-14.22-24.7c-8.63-11.01-20.23-21.08-34.87-26.79-.55 39.59 22.46 78.01-.06 102.84z"/><path class="fil0" d="M5560.32 578.09c-1.74-1.84-3.99-.25-2.61-4.49.15-.46 1.05-2.56 1.22-3.02.24-.62 1.82-2.22 2.55-3.44 40.36-2.26 69.33 1.91 102.28 28.61 53.4 43.28 49.75 47.22 87.3 103.63 27.89 41.9 17.88 135.59 9.83 179.33 56.36-60.63 65.54-165.98 55.84-251.71-5.91-52.19-21.57-76.33-44.57-115.99-64.98-112.08-175.8-160.73-315.34-160.76-103.21-.02-212.43-3.36-314.91.72-12.3 25.55-72.15 181.72-68.61 202.48 114.6 4.14 262.32-.16 383.52.18 73.55.21 53.89 2.3 103.5 24.46z"/><path class="fil3" d="M1306.38 734.31c3.55 28.22-15.67 46.43-26.35 62.98-22.36 34.65-34.6 25.73-42.3 47.03 4.38 9.14-.95 2.89 7.99 8.32 2.36 1.44 10.43 3.64 13.13 4.35 52.98 13.92 50.43 16.62 100.31 39.04 16.72 7.51 12.86-.02 23.46 12.23 14.14 16.35.93 3.23 20.01 16.82l5.52 4.74c10.94 9.94-.53 3.98 13.17 11.03l18.1-20.19c.44-.7 1.05-1.55 1.44-2.31 9.22-17.64 21.66-73.16 23.6-90.84 4.84-44.16-4.93-95.25-22-128.73-4.98-9.76-9.17-11.86-14.06-21.18-14.61-27.82-28.9-44.81-54.57-65.4-19.1-15.32-50.41-33.84-75.95-43.23-18.07-6.64-22.27-2.11-29.81-14.38l-61.13-.64c14.72 10.42 26.7 12.95 43.04 25.82 14.91 11.75 22.49 20.58 35.16 37.53 33.18 44.41 15.45 65.39 21.24 117.01z"/><path d="M1927.04 1923.84c-72.74 4.56-163.13 1.53-240.68 1.52l-1622.92.01c-20.71.08-44.18 4.19-52.34-4.84-8.5-9.41-3.65-1250.69-3.62-1435.75.02-79.9-.02-159.8.01-239.7C7.5 195.62 1.35 46.11 9.42 9.74c40-6.75 405.62-2.04 478.81-2.05 182.62-.02 1427.23-4.86 1434.94 4.09 6.73 7.82 2.59 871.15 2.59 956.02 0 30.41-3.76 924.13 1.28 956.04zm0 0c13.76-4.87 4.91-96.17 4.92-113.48.12-185.82 3.3-1772.96-.96-1802.83-27.22-13.21-411.8-5.02-477.01-5.02C1267.02 2.5 14.32-2.72 5.35 5.66c-8.88 8.31-3.96 1257.97-3.74 1441.53.08 69.52-4.78 446.47 2.02 480.97 38.1 9.16 188.11 2.83 237.71 2.8l1568.46.01c20.55 0 41.19-.19 61.72.02 23.72.23 49.77 5.94 55.52-7.15z" style="fill:#c1eada"/><path d="M1859.73 75.26c-7.78 42.69-1.34 171.89-1.35 224.3-.03 221.94 3.66 1549.02-3.53 1555.84-7.97 7.57-1162.86 2.91-1333.94 2.93-91.13.01-375 4.48-443.48-.74-10.23-26.86-2.99-790.73-3.01-889.79l.86-881.81c1.39-7.45.32-3.95 2.91-8.03 27.8-13.08 1594.37 1.76 1781.54-2.7zm0 0c-3.27-5.47-2.43-7-24.24-7.05l-868.01.48c-50.96.01-868.38-5.04-895.69 2.78-.51 1.06-.96 2.38-1.23 3.33L67.7 183.34c-.02 278.74-5.89 1653.75 4.16 1679.91 52.02 5.13 369.05 1.09 449.05 1.09 167.52.01 1335.79 6.68 1340.81-5.71l3.46-883.57c-.16-296.56.88-593.25-.01-889.78-.68-22.71.79-5.66-5.44-10.02z" style="fill:#92c6b4"/><path d="M404.73 13.11c499.34.29 1018.46-4.62 1515.2.93l-1.75 1905.41-351.63.53c-164.9.02-1496.83 3.99-1535.93-.03-13.52-1.39-5.88 1.31-14.67-4.23-8.2-19.49-3-851.72-2.94-951.55V248.71c-.05-58.84-6.44-184.84 2.02-234.78l389.7-.82zm1522.31 1910.73c-5.04-31.91-1.28-925.63-1.28-956.04 0-84.87 4.14-948.2-2.59-956.02-7.71-8.95-1252.32-4.11-1434.94-4.09-73.19.01-438.81-4.7-478.81 2.05C1.35 46.11 7.5 195.62 7.49 245.08c-.03 79.9.01 159.8-.01 239.7-.03 185.06-4.88 1426.34 3.62 1435.75 8.16 9.03 31.63 4.92 52.34 4.84l1622.92-.01c77.55.01 167.94 3.04 240.68-1.52z" style="fill:#57a78b"/><path d="M5560.32 578.09c8.96 14.41 12.94 11.81 24.1 26.03 7.13 9.08 10.71 15.46 15.94 27.28 9.28 21 13.06 47.92 10.32 76.5-2.54 26.37-10.78 48.31-25.5 66.46-18.72 23.09-27.46 26.34-44.37 42.8-7.77 9.72-1.57-4.45-5.87 16.36 46.82 4.62 116.01 40.95 149.48 70.13l41.53 32.15c2.97-20.01 6.27-19.81 16.97-32.26 9.45-11 9.9-14.75 17.97-24.83 8.05-43.74 18.06-137.43-9.83-179.33-37.55-56.41-33.9-60.35-87.3-103.63-32.95-26.7-61.92-30.87-102.28-28.61-.73 1.22-2.31 2.82-2.55 3.44-.17.46-1.07 2.56-1.22 3.02-1.38 4.24.87 2.65 2.61 4.49z" style="fill:#d33a25"/><path d="M6519.48 1353.4c56.99 9.79 178.13-53.7 212.81-78.73 120.55-87.01 202.29-216.76 224.31-363.98 9.17-61.3-2.42-168.07-29.43-226.21l-15.55-22.52c-4.59 41.98 8.37 22.99 16.89 83.44 6.2 44.06 28.37 76.05 4.25 166.96-7.92 29.84-.53 57.34-11.77 85.87-1.65 4.2-11.97 23.33-15.11 31.19-10.21 25.52-30.12 75.45-50.02 92.82-21.88 19.09-51.47 85.95-112.55 120.96-26.96 15.46-7.63 5.1-24.16 22.99-9.48 10.25-59.53 30.43-72.06 37.25-61.99 33.73-88.17 22.77-142.47 30.9-30.39 4.55-19.13 9.09-81.78 12.03-31.31 1.48-63.96 1.08-95.38.78-210.35-2.04-206.59-20.25-203.12 64.79 1.19 29.19.06 61.32.03 90.8-30.47 7.89-142.26 13.78-168.01.15-9.65-8.67-5.17-131.11-5.18-143.06l-.07-728.13c.06-23.13-4.83-241.19 3.48-258.54.51-1.06 1.32-2.08 1.9-3.09l11.37-16.41-24.66 3.3c-9.56 37.24-2.9 928.35-3.36 1083.77l1.47 57.43c2.06 8.95 3.19 9.98 5.54 13.93 21.41 14.26 150.64 6.95 185.33 3.45l4.04-156.58c25.42-4.96 353.06-9.47 383.26-5.56z" style="fill:#ce4432"/><path d="M6694.44 1021.96c-17.34 46.24-92.83 96.14-139.51 112.7-66.6 23.63-264.86 24.08-351.32 19.21-40.86-2.3-60.99-18.13-62.44-60.25l.89-495.14c9.3-61.64 118.11-44.26 204.43-44.37 120.86-.15 210.92-5.16 298.8 73.75 27.12 24.35 24.41 24.42 44.48 50.35 3.75 4.85 2.9 4.42 6.67 8.17 10.12 10.06.37 2.85 13.04 10.21-1.39-19.82-2.48-16.64-14.28-32.62-8.07-10.93-11.64-15.86-19.26-23.94-39.14-41.5-46.73-38.23-72.75-60.56-69.54-59.67-432.74-36.6-443.97-30.23-20.85 11.8-29.76 22.08-30.58 53.6-2.04 78.93 5.54 455.14-4.42 486.78-4.97 15.76-10.6 8.26.6 25.55l36.12 50.01c92.62.85 258.44 10.2 339.72-4.86 58.49-10.83 77.77-17.82 121.94-46.76 33.09-21.69 75.17-52.79 88.26-96.36-6.33 2.05-8.82 2.08-16.42 4.76z" style="fill:#d0544a"/><path d="M6519.48 1353.4c-30.2-3.91-357.84.6-383.26 5.56l-4.04 156.58c-34.69 3.5-163.92 10.81-185.33-3.45-2.35-3.95-3.48-4.98-5.54-13.93l-1.47-57.43c.46-155.42-6.2-1046.53 3.36-1083.77l24.66-3.3c141.36 12.26 367.63-8.36 487.69 1.59l146.15 20.12-14.26-9.1c-1.41-.61-2.54-.93-4-1.45-3.92-1.38-15.73-3.56-20.49-4.54-9.78-2.01-23.37-4.63-35.51-6.56-79.35-12.6-563.1-9.34-594.65-2.32-8.35 189.81-.67 397.82-.67 589.64l-.39 552.44c.22 7.1.21 10.68 2.08 17.46 3.86 14.02-2.74 1.17 5.25 9.84 12.8 8.16 183.98 7.9 196.13-.49 7.45-7.54 3.43 8.16 7.02-17.53l-.02-57.27c-.06-104.79-30.6-81.57 194.78-81.64 24.75 0 160.38 5.99 182.51-10.45z" style="fill:#e3736c"/><path d="M4406.79 553.51c-24.2 3.8-9.98 5.92-31.26 10.23-14.51 154.73-7.03 546.04-7.28 715.18-.1 67.35 5.52 175.86-2.88 235.65-26.97 5.38-161.2 6.79-185.15-.84-6.81-17.67-10-1127.95.89-1163.78-18.09 5.4-13.89 1.96-14.08 29.07l.72 1075.99c-.03 18.45-5.31 55.68 6.62 65.41 12.61 8.06 182.92 8.18 195.64.09 6.82-6.88 3.68-.86 6.59-13.51l1.1-856.26c.09-108.77 20.98-74.23 26.14-94.12.51-1.95 2.02-2.03 2.95-3.11z" style="fill:#5cae92"/><path class="fil13" d="M1306.38 734.31c-5.39 5.51-1.46-.93-6.95 9.92-5.35 10.58-2.3 12.22-13.83 29.63-46.54 70.21-66.49 58.79-102.34 80.18 81.14 8.73 134.65 27.25 194.92 69.8 12.62 8.91 40.01 35.5 50.32 40.14 1.74-18.39 26.44-39.66 36.19-54.82-13.61-22.05 47.23-104.86-23.45-237.36-31.42-58.91-102.16-110.12-173.17-117.21 7.54 12.27 11.74 7.74 29.81 14.38 25.54 9.39 56.85 27.91 75.95 43.23 25.67 20.59 39.96 37.58 54.57 65.4 4.89 9.32 9.08 11.42 14.06 21.18 17.07 33.48 26.84 84.57 22 128.73-1.94 17.68-14.38 73.2-23.6 90.84-.39.76-1 1.61-1.44 2.31l-18.1 20.19c-13.7-7.05-2.23-1.09-13.17-11.03l-5.52-4.74c-19.08-13.59-5.87-.47-20.01-16.82-10.6-12.25-6.74-4.72-23.46-12.23-49.88-22.42-47.33-25.12-100.31-39.04-2.7-.71-10.77-2.91-13.13-4.35-8.94-5.43-3.61.82-7.99-8.32 7.7-21.3 19.94-12.38 42.3-47.03 10.68-16.55 29.9-34.76 26.35-62.98z"/><path d="M1410.03 1370.56c4.58 27.87-21.27 100.24-54.75 130.56-31.54 28.57-10.01 11.99-24.85 29.12-40.36 46.57-108.81 64.33-116.2 70.88 57.7-2.57 156.44-39.65 180.75-72.05l-26.25 10.87c-12.33 11.26-7.97 10.73-29.9 11.5 3.17-16.7 4.76-17.92 19.42-32.96l7.44-7.31c11.42-11.4 13.19-18.61 23.09-35.15 17.1-28.59 24.51-50.54 31.13-85.75 8.45-44.93 7.58-112.64-12.72-153.74-18.56-37.58-5.88-31.08-25.44-37.3 25.53 60.77 31.99 53.95 34.5 124.47l-1.58 36.49c-2.05 7.63-2.05 6.45-4.64 10.37z" style="fill:#687957"/><path class="fil13" d="M5621.19 1208.39c22.52-24.83-.49-63.25.06-102.84 14.64 5.71 26.24 15.78 34.87 26.79l14.22 24.7c15.84 42.22-4.63.98 23.04 52.51 25.86 48.14 2.99 151.74-23.03 188.27-17.88 25.1-19.21 21.35-23.21 43.8 25.51-7.27 11.56-2.84 26.39-22.5 24.62-32.63 8.96-1.37 26.73-49.18 6.89-18.54 7.19-10.12 13.11-23.97 16.74-39.23 10.92-145.79-29.26-199.01-6.18-8.19-9.15-14.41-16.22-22.11l-64.54-55.16c-15.68-7.4-39.06-18.9-56.41-20.11 16.58 26 78.15 34.94 74.25 158.81zm-4326.74 106.75c25.86-24 31.51-60.42 28.09-97-2.44-26.15-9.7-54.77-23.13-73.86-9.02-12.82-3.08-.01-7.92-15.57 25.65 3.38 7.45 1.77 18.54 8.6 16.73 10.3 40.81 32.68 50.29 46.95 31.32 47.13 30.72 42.89 41.51 101.91 2.37 12.94 7.21 16.26 8.29 33.69 1.05 17.08-1.09 33.47-.09 50.7 2.59-3.92 2.59-2.74 4.64-10.37l1.58-36.49c-2.51-70.52-8.97-63.7-34.5-124.47-2.86-4.84-1.69-6.14-3.55-9.64-8.85-16.7-40.48-46.33-53.35-56.54-23.94-18.97-60.23-48.33-83.05-34.7 28.41 14.32 55.68 52.46 66.11 85.12 6.68 20.91 8.22 46.17 5.82 71.42-2.69 28.27-14.58 32.77-19.28 60.25z"/></g></svg>