<svg width="225" height="74" viewBox="0 0 225 74" fill="none" xmlns="http://www.w3.org/2000/svg">
						<path d="M73.5867 67.8899C73.5867 71.2561 70.8581 74 67.5107 74H6.10409C2.72856 74 0 71.2561 0 67.8899V6.13838C0 2.74388 2.72856 0 6.10409 0H67.5107C70.8581 0 73.5867 2.74388 73.5867 6.13838V67.8899Z" fill="#E9E9E9"></path>
						<path d="M20.9004 37.0567H22.2787C24.4447 37.0567 24.6697 35.7837 24.6697 35.0483C24.6697 34.1713 24.3884 33.0398 22.2787 33.0398H20.9004V37.0567ZM16.0059 29.1927H23.3476C28.2984 29.1927 29.7049 32.6438 29.7049 35.0483C29.7049 37.481 28.2984 40.932 23.3476 40.932H20.9004V46.7027H16.0059V29.1927Z" fill="#E21E32"></path>
						<path d="M34.4018 33.3793H30.5762V29.1927H43.1219V33.3793H39.2963V46.7027H34.4018V33.3793Z" fill="#E21E32"></path>
						<path d="M57.6938 45.9104C56.1185 46.9853 54.487 47.2116 52.9961 47.2116C47.8203 47.2116 44.0791 43.5343 44.0791 37.9333C44.0791 32.0778 48.186 28.6833 52.9118 28.6833C54.4589 28.6833 56.231 29.0794 57.6938 30.0694V35.1612C56.7936 34.1145 55.4434 33.0679 53.5587 33.0679C50.8864 33.0679 49.1143 35.2178 49.1143 38.1031C49.1143 40.7338 50.7739 42.8271 53.5587 42.8271C55.3871 42.8271 56.7936 41.837 57.6938 40.9318V45.9104Z" fill="#E21E32"></path>
						<path d="M26.5536 19.8861H24.7529V19.3203H29.0858V19.8861H27.257V24.4686H26.5536V19.8861Z" fill="#E21E32"></path>
						<path d="M34.0364 21.3854C34.0083 20.5651 33.4176 19.6882 32.3768 19.6882C31.4204 19.6882 30.7171 20.3671 30.5765 21.3854H34.0364ZM34.7397 23.111C34.3177 23.9596 33.5864 24.6668 32.3768 24.6668C30.6609 24.6668 29.7607 23.2807 29.7607 21.8946C29.7607 20.4237 30.6609 19.1224 32.3768 19.1224C34.1208 19.1224 34.7397 20.6217 34.7397 21.6117V21.9512H30.5202C30.4921 22.9412 31.111 24.101 32.3768 24.101C32.7987 24.101 33.6145 24.0445 34.1771 22.8281L34.7397 23.111Z" fill="#E21E32"></path>
						<path d="M36.1465 19.3203H36.8499V21.555H39.7197V19.3203H40.4231V24.4686H39.7197V22.1208H36.8499V24.4686H36.1465V19.3203Z" fill="#E21E32"></path>
						<path d="M45.2322 19.8861H43.3476V22.3188C43.3476 22.9977 43.1788 23.5351 42.7006 23.9029H45.2322V19.8861ZM45.9355 19.3203V23.9029H46.6668V25.7699H46.0199V24.4686H42.138V25.7699H41.4629V23.9029C42.5599 23.818 42.6443 22.7431 42.6443 21.8379V19.3203H45.9355Z" fill="#E21E32"></path>
						<path d="M51.7308 21.3854C51.7026 20.5651 51.14 19.6882 50.0992 19.6882C49.1428 19.6882 48.4115 20.3671 48.2708 21.3854H51.7308ZM52.434 23.111C52.0121 23.9596 51.3088 24.6668 50.0992 24.6668C48.3834 24.6668 47.4551 23.2807 47.4551 21.8946C47.4551 20.4237 48.3834 19.1224 50.0992 19.1224C51.8433 19.1224 52.434 20.6217 52.434 21.6117V21.9512H48.2146C48.1864 22.9412 48.8334 24.101 50.0992 24.101C50.4931 24.101 51.3369 24.0445 51.8995 22.8281L52.434 23.111Z" fill="#E21E32"></path>
						<path d="M58.3126 21.8946C58.3126 20.8763 57.75 19.6882 56.3436 19.6882C55.2465 19.6882 54.5151 20.6782 54.5151 21.8946C54.5151 23.3373 55.4434 24.101 56.4561 24.101C57.6094 24.101 58.3126 23.1393 58.3126 21.8946ZM54.5151 19.3204V20.2256C54.8246 19.6599 55.4153 19.1224 56.4279 19.1224C57.9751 19.1224 59.044 20.2256 59.044 21.8946C59.044 23.4504 58.0595 24.6668 56.4561 24.6668C55.3872 24.6668 54.8246 24.0445 54.5714 23.6767V26.9298H53.8682V19.3204H54.5151Z" fill="#E21E32"></path>
						<path d="M94.5781 23.25C93.2344 23.25 92.112 22.8932 91.2109 22.1797C90.3099 21.4714 89.7682 20.5156 89.5859 19.3125H91.9062C92.0729 19.9167 92.3906 20.388 92.8594 20.7266C93.3333 21.0703 93.9036 21.2422 94.5703 21.2422C95.362 21.2422 96.0182 20.9714 96.5391 20.4297C97.0599 19.8776 97.3542 19.1328 97.4219 18.1953H92.9766V16.3672H97.3984C97.3151 15.4818 97.013 14.7786 96.4922 14.2578C95.9818 13.7422 95.3438 13.4844 94.5781 13.4844C93.9219 13.4844 93.3516 13.6693 92.8672 14.0391C92.3776 14.4141 92.0599 14.9115 91.9141 15.5312H89.5938C89.7396 14.3333 90.2786 13.3568 91.2109 12.6016C92.1328 11.8516 93.2552 11.4766 94.5781 11.4766C96.2031 11.4766 97.4922 12.0026 98.4453 13.0547C99.3932 14.112 99.8672 15.5469 99.8672 17.3594C99.8672 19.1771 99.3932 20.6146 98.4453 21.6719C97.5026 22.724 96.2135 23.25 94.5781 23.25ZM108.656 23V13.6719H105.367L105.094 18.5469C105.01 20.0573 104.716 21.1797 104.211 21.9141C103.669 22.7057 102.852 23.1016 101.758 23.1016C101.398 23.1016 101.115 23.0651 100.906 22.9922V20.9297C101.099 20.9714 101.273 20.9922 101.43 20.9922C101.935 20.9922 102.305 20.7708 102.539 20.3281C102.747 19.9271 102.875 19.2812 102.922 18.3906L103.258 11.7266H111.016V23H108.656ZM120.602 23H113.133V11.7266H120.602V13.6719H115.492V16.3906H120.312V18.2031H115.492V21.0469H120.602V23ZM132.258 23H129.312L125.062 18.0469H125V23H122.641V11.7266H125V16.5H125.062L129.227 11.7266H131.891L127.219 17.0625L132.258 23ZM136.102 23V13.6719H132.805V11.7266H141.766V13.6719H138.461V23H136.102ZM148.055 11.7266C149.216 11.7266 150.156 12.0807 150.875 12.7891C151.599 13.4974 151.961 14.4297 151.961 15.5859C151.961 16.737 151.589 17.6693 150.844 18.3828C150.099 19.0911 149.13 19.4453 147.938 19.4453H145.711V23H143.352V11.7266H148.055ZM145.711 17.6016H147.422C148.099 17.6016 148.625 17.4271 149 17.0781C149.375 16.7292 149.562 16.2344 149.562 15.5938C149.562 14.9531 149.375 14.4583 149 14.1094C148.63 13.7656 148.107 13.5938 147.43 13.5938H145.711V17.6016ZM158.672 11.5312C160.344 11.5312 161.667 12.0547 162.641 13.1016C163.62 14.1484 164.109 15.5703 164.109 17.3672C164.109 19.1589 163.62 20.5781 162.641 21.625C161.661 22.6719 160.339 23.1953 158.672 23.1953C157 23.1953 155.677 22.6719 154.703 21.625C153.724 20.5781 153.234 19.1589 153.234 17.3672C153.234 15.5703 153.724 14.1484 154.703 13.1016C155.677 12.0547 157 11.5312 158.672 11.5312ZM158.672 13.5C157.75 13.5 157.016 13.849 156.469 14.5469C155.917 15.2448 155.641 16.1849 155.641 17.3672C155.641 18.5443 155.914 19.4818 156.461 20.1797C157.008 20.8724 157.745 21.2188 158.672 21.2188C159.594 21.2188 160.328 20.8724 160.875 20.1797C161.422 19.4818 161.695 18.5443 161.695 17.3672C161.695 16.1849 161.422 15.2448 160.875 14.5469C160.328 13.849 159.594 13.5 158.672 13.5ZM173.258 23V18.25H168.18V23H165.82V11.7266H168.18V16.3047H173.258V11.7266H175.617V23H173.258ZM185.258 23V18.25H180.18V23H177.82V11.7266H180.18V16.3047H185.258V11.7266H187.617V23H185.258ZM196.344 20.2656H192.383L191.523 23H189.102L193.016 11.7266H195.789L199.711 23H197.203L196.344 20.2656ZM192.891 18.5H195.836L194.391 13.8828H194.336L192.891 18.5ZM207.344 13.5781H205.398C204.768 13.5781 204.276 13.737 203.922 14.0547C203.562 14.3776 203.383 14.8177 203.383 15.375C203.383 15.9427 203.56 16.3828 203.914 16.6953C204.268 17.013 204.763 17.1719 205.398 17.1719H207.344V13.5781ZM203.047 23H200.438L203.406 18.6016C202.667 18.3724 202.078 17.974 201.641 17.4062C201.193 16.8281 200.969 16.1484 200.969 15.3672C200.969 14.2734 201.339 13.3958 202.078 12.7344C202.823 12.0625 203.818 11.7266 205.062 11.7266H209.688V23H207.344V18.9297H205.727L203.047 23ZM97.4219 42V32.6797H92.4609V42H90.0938V30.7266H99.7734V42H97.4219ZM108.984 42V32.6719H105.695L105.422 37.5469C105.339 39.0573 105.044 40.1797 104.539 40.9141C103.997 41.7057 103.18 42.1016 102.086 42.1016C101.727 42.1016 101.443 42.0651 101.234 41.9922V39.9297C101.427 39.9714 101.602 39.9922 101.758 39.9922C102.263 39.9922 102.633 39.7708 102.867 39.3281C103.076 38.9271 103.203 38.2812 103.25 37.3906L103.586 30.7266H111.344V42H108.984ZM118.547 30.5312C120.219 30.5312 121.542 31.0547 122.516 32.1016C123.495 33.1484 123.984 34.5703 123.984 36.3672C123.984 38.1589 123.495 39.5781 122.516 40.625C121.536 41.6719 120.214 42.1953 118.547 42.1953C116.875 42.1953 115.552 41.6719 114.578 40.625C113.599 39.5781 113.109 38.1589 113.109 36.3672C113.109 34.5703 113.599 33.1484 114.578 32.1016C115.552 31.0547 116.875 30.5312 118.547 30.5312ZM118.547 32.5C117.625 32.5 116.891 32.849 116.344 33.5469C115.792 34.2448 115.516 35.1849 115.516 36.3672C115.516 37.5443 115.789 38.4818 116.336 39.1797C116.883 39.8724 117.62 40.2188 118.547 40.2188C119.469 40.2188 120.203 39.8724 120.75 39.1797C121.297 38.4818 121.57 37.5443 121.57 36.3672C121.57 35.1849 121.297 34.2448 120.75 33.5469C120.203 32.849 119.469 32.5 118.547 32.5ZM138.539 44.2266V42H125.781V30.7266H128.141V40.0547H131.344V30.7266H133.703V40.0547H136.906V30.7266H139.266V40.0547H140.672V44.2266H138.539ZM148.531 39.2656H144.57L143.711 42H141.289L145.203 30.7266H147.977L151.898 42H149.391L148.531 39.2656ZM145.078 37.5H148.023L146.578 32.8828H146.523L145.078 37.5ZM156.461 37.2734C156.372 38.6016 156.122 39.5052 155.711 39.9844V40.0469H160.312V32.6641H156.758L156.461 37.2734ZM154.531 44.2266H152.391V40.0469H153.18C153.555 39.7917 153.826 39.4245 153.992 38.9453C154.138 38.5234 154.237 37.9062 154.289 37.0938L154.68 30.7266H162.672V40.0469H164.078V44.2266H161.945V42H154.531V44.2266ZM175.117 42H172.172L167.922 37.0469H167.859V42H165.5V30.7266H167.859V35.5H167.922L172.086 30.7266H174.75L170.078 36.0625L175.117 42ZM182.828 39.2656H178.867L178.008 42H175.586L179.5 30.7266H182.273L186.195 42H183.688L182.828 39.2656ZM179.375 37.5H182.32L180.875 32.8828H180.82L179.375 37.5ZM94.7109 49.7266C95.8724 49.7266 96.8125 50.0807 97.5312 50.7891C98.2552 51.4974 98.6172 52.4297 98.6172 53.5859C98.6172 54.737 98.2448 55.6693 97.5 56.3828C96.7552 57.0911 95.7865 57.4453 94.5938 57.4453H92.3672V61H90.0078V49.7266H94.7109ZM92.3672 55.6016H94.0781C94.7552 55.6016 95.2812 55.4271 95.6562 55.0781C96.0312 54.7292 96.2188 54.2344 96.2188 53.5938C96.2188 52.9531 96.0312 52.4583 95.6562 52.1094C95.2865 51.7656 94.763 51.5938 94.0859 51.5938H92.3672V55.6016ZM105.328 49.5312C107 49.5312 108.323 50.0547 109.297 51.1016C110.276 52.1484 110.766 53.5703 110.766 55.3672C110.766 57.1589 110.276 58.5781 109.297 59.625C108.318 60.6719 106.995 61.1953 105.328 61.1953C103.656 61.1953 102.333 60.6719 101.359 59.625C100.38 58.5781 99.8906 57.1589 99.8906 55.3672C99.8906 53.5703 100.38 52.1484 101.359 51.1016C102.333 50.0547 103.656 49.5312 105.328 49.5312ZM105.328 51.5C104.406 51.5 103.672 51.849 103.125 52.5469C102.573 53.2448 102.297 54.1849 102.297 55.3672C102.297 56.5443 102.57 57.4818 103.117 58.1797C103.664 58.8724 104.401 59.2188 105.328 59.2188C106.25 59.2188 106.984 58.8724 107.531 58.1797C108.078 57.4818 108.352 56.5443 108.352 55.3672C108.352 54.1849 108.078 53.2448 107.531 52.5469C106.984 51.849 106.25 51.5 105.328 51.5ZM117.477 61.25C115.836 61.25 114.536 60.724 113.578 59.6719C112.62 58.6146 112.141 57.1771 112.141 55.3594C112.141 53.5469 112.622 52.112 113.586 51.0547C114.544 50.0026 115.841 49.4766 117.477 49.4766C118.794 49.4766 119.909 49.8516 120.82 50.6016C121.732 51.3568 122.263 52.3333 122.414 53.5312H120.094C119.943 52.9115 119.633 52.4141 119.164 52.0391C118.685 51.6693 118.122 51.4844 117.477 51.4844C116.586 51.4844 115.878 51.8307 115.352 52.5234C114.82 53.2214 114.555 54.1641 114.555 55.3516C114.555 56.5547 114.818 57.5026 115.344 58.1953C115.87 58.8932 116.583 59.2422 117.484 59.2422C118.146 59.2422 118.708 59.0703 119.172 58.7266C119.63 58.388 119.94 57.9167 120.102 57.3125H122.422C122.24 58.5208 121.706 59.4766 120.82 60.1797C119.93 60.8932 118.815 61.25 117.477 61.25ZM129.039 61.25C127.398 61.25 126.099 60.724 125.141 59.6719C124.182 58.6146 123.703 57.1771 123.703 55.3594C123.703 53.5469 124.185 52.112 125.148 51.0547C126.107 50.0026 127.404 49.4766 129.039 49.4766C130.357 49.4766 131.471 49.8516 132.383 50.6016C133.294 51.3568 133.826 52.3333 133.977 53.5312H131.656C131.505 52.9115 131.195 52.4141 130.727 52.0391C130.247 51.6693 129.685 51.4844 129.039 51.4844C128.148 51.4844 127.44 51.8307 126.914 52.5234C126.383 53.2214 126.117 54.1641 126.117 55.3516C126.117 56.5547 126.38 57.5026 126.906 58.1953C127.432 58.8932 128.146 59.2422 129.047 59.2422C129.708 59.2422 130.271 59.0703 130.734 58.7266C131.193 58.388 131.503 57.9167 131.664 57.3125H133.984C133.802 58.5208 133.268 59.4766 132.383 60.1797C131.492 60.8932 130.378 61.25 129.039 61.25ZM143.172 53.375H143.078L137.961 61H135.688V49.7266H138.039V57.3594H138.133L143.25 49.7266H145.523V61H143.172V53.375ZM155.219 53.375H155.125L150.008 61H147.734V49.7266H150.086V57.3594H150.18L155.297 49.7266H157.57V61H155.219V53.375Z" fill="#E33143"></path>
					</svg>