<svg xmlns="http://www.w3.org/2000/svg" xml:space="preserve" width="3121" height="478" style="shape-rendering:geometricPrecision;text-rendering:geometricPrecision;image-rendering:optimizeQuality;fill-rule:evenodd;clip-rule:evenodd" viewBox="0 0 13846.5 2122.15"><defs><linearGradient id="id0" gradientUnits="userSpaceOnUse" x1="409.63" y1="372.72" x2="1045.05" y2="130.98"><stop offset="0" style="stop-opacity:1;stop-color:#0fa8e0"/><stop offset=".059" style="stop-opacity:1;stop-color:#0fa8e0"/><stop offset=".541" style="stop-opacity:1;stop-color:#0099f9"/><stop offset=".922" style="stop-opacity:1;stop-color:#0291eb"/><stop offset="1" style="stop-opacity:1;stop-color:#0291eb"/></linearGradient><linearGradient id="id1" gradientUnits="userSpaceOnUse" x1="362.55" y1="1785.44" x2="112.51" y2="1063.85"><stop offset="0" style="stop-opacity:1;stop-color:#f2e913"/><stop offset=".149" style="stop-opacity:1;stop-color:#f2e913"/><stop offset=".302" style="stop-opacity:1;stop-color:#e7e518"/><stop offset=".58" style="stop-opacity:1;stop-color:#cadb26"/><stop offset=".89" style="stop-opacity:1;stop-color:#a3cd39"/><stop offset="1" style="stop-opacity:1;stop-color:#a3cd39"/></linearGradient><linearGradient id="id2" gradientUnits="userSpaceOnUse" x1="1005.03" y1="1963.32" x2="1762.24" y2="1792.38"><stop offset="0" style="stop-opacity:1;stop-color:#a3cd39"/><stop offset=".122" style="stop-opacity:1;stop-color:#a3cd39"/><stop offset=".29" style="stop-opacity:1;stop-color:#86c339"/><stop offset=".871" style="stop-opacity:1;stop-color:#21a038"/><stop offset="1" style="stop-opacity:1;stop-color:#21a038"/></linearGradient><linearGradient id="id3" gradientUnits="userSpaceOnUse" x1="362.1" y1="1733.24" x2="1038.3" y2="1985.57"><stop offset="0" style="stop-opacity:1;stop-color:#f2e913"/><stop offset=".129" style="stop-opacity:1;stop-color:#f2e913"/><stop offset=".302" style="stop-opacity:1;stop-color:#ebe716"/><stop offset=".529" style="stop-opacity:1;stop-color:#d9e01f"/><stop offset=".8" style="stop-opacity:1;stop-color:#bbd62d"/><stop offset=".98" style="stop-opacity:1;stop-color:#a3cd39"/><stop offset="1" style="stop-opacity:1;stop-color:#a3cd39"/></linearGradient><linearGradient id="id4" gradientUnits="userSpaceOnUse" x1="113.85" y1="976.72" x2="384.32" y2="274.44"><stop offset="0" style="stop-opacity:1;stop-color:#a3cd39"/><stop offset=".071" style="stop-opacity:1;stop-color:#a3cd39"/><stop offset=".259" style="stop-opacity:1;stop-color:#81c55f"/><stop offset=".922" style="stop-opacity:1;stop-color:#0fa8e0"/><stop offset="1" style="stop-opacity:1;stop-color:#0fa8e0"/></linearGradient><linearGradient id="id5" gradientUnits="userSpaceOnUse" x1="1030.58" y1="100.49" x2="1660.32" y2="294.55"><stop offset="0" style="stop-opacity:1;stop-color:#0291eb"/><stop offset=".051" style="stop-opacity:1;stop-color:#0291eb"/><stop offset=".788" style="stop-opacity:1;stop-color:#0c8acb"/><stop offset="1" style="stop-opacity:1;stop-color:#0c8acb"/></linearGradient><style>.fil0{fill:#21a038;fill-rule:nonzero}</style></defs><g id="Слой_x0020_1"><path id="Path" class="fil0" d="m6192.4 635.6 288.98-213.26h-967.49v1277.47h967.49v-213.26h-691.06v-326.16h590.55V947.13h-590.55V635.6z"/><path id="Shape" class="fil0" d="M4783.03 919.95h-335.06V635.6h536.1l288.99-213.26H4171.54v1277.47h575.89c322.5 0 508.88-146.35 508.88-401.43 0-244.62-167.53-378.43-473.28-378.43zm-46.07 566.6h-288.99v-353.34h288.99c175.91 0 257.58 58.54 257.58 177.71 0 119.18-87.95 175.63-257.58 175.63z"/><path id="Shape_0" class="fil0" d="M7264.6 422.34h-525.63v1277.47h276.42V1338.1h251.3c335.06 0 544.48-175.62 544.48-457.88 0-282.25-209.42-457.88-546.57-457.88zm-6.29 702.5H7013.3V635.6h245.01c178.01 0 274.34 87.81 274.34 244.62s-96.33 244.62-274.34 244.62z"/><path id="Path_1" class="fil0" d="M3698.26 1423.83c-73.29 39.72-154.96 60.63-238.73 60.63-249.2 0-429.3-177.72-429.3-422.34 0-244.62 180.1-422.34 429.3-422.34 90.05-2.09 178.01 27.18 251.3 79.45l198.94-146.35-12.56-12.55c-115.18-102.45-270.15-154.72-446.05-154.72-190.57 0-364.39 64.82-490.03 181.9-125.65 121.27-196.86 290.62-192.66 466.25-2.1 177.72 67.01 349.16 192.66 474.61 131.93 123.35 307.83 192.35 487.93 188.17 198.94 0 372.76-69 490.03-194.45l-178-131.72-62.83 33.46z"/><path id="Shape_2" class="fil0" d="M11134.58 424.43V1701.9h276.43v-522.69h588.45v522.69h276.43V424.43h-276.43v524.79h-588.45V424.43h-276.43zm-475.37 1277.47h291.09L10410 424.43h-280.61L9578.63 1701.9h278.52l110.99-257.16h586.36l104.71 257.16zm-607.31-470.42 213.61-512.25 201.04 512.25h-414.65zm2843.86-46h171.72l423.02 514.33h356l-565.42-660.69 494.22-616.78h-316.22l-410.45 547.79h-152.87V422.34h-276.43v1277.47h276.43v-514.33zM8665.58 922.04V637.69h722.48V424.43h-998.91V1701.9h575.89c322.5 0 508.88-146.35 508.88-401.43 0-244.62-167.53-378.43-473.27-378.43h-335.07zm0 566.6V1135.3h288.99c175.91 0 257.59 58.54 257.59 177.72 0 119.17-85.87 177.71-257.59 177.71h-288.99v-2.09z"/><path id="Path_3" class="fil0" d="M1903.58 413.97c50.26 64.82 92.14 135.91 127.74 211.17l-967.49 712.96-406.26-255.07V777.77l404.16 252.99 841.85-616.79z"/><path d="M245.02 1062.12c0-14.63 0-27.18 2.09-41.81L2.1 1007.76c0 16.73-2.1 35.54-2.1 52.27 0 292.71 119.37 558.24 312.03 750.6l173.81-173.54c-148.68-146.36-240.82-349.16-240.82-574.97z" style="fill:url(#id1);fill-rule:nonzero"/><path d="M1061.73 246.71c14.66 0 27.23 0 41.89 2.09l12.56-244.62c-16.75 0-35.6-2.09-52.35-2.09-293.18 0-559.14 119.18-751.8 311.53l173.81 173.53c146.6-148.44 351.82-240.44 575.89-240.44z" style="fill:url(#id0);fill-rule:nonzero"/><path d="M1061.73 1877.53c-14.65 0-27.22 0-41.88-2.09l-12.56 244.62c16.75 0 35.6 2.09 52.35 2.09 293.18 0 559.14-119.17 751.8-311.52l-173.82-173.54c-146.59 150.53-349.72 240.44-575.89 240.44z" style="fill:url(#id2);fill-rule:nonzero"/><path d="m1522.44 388.89 207.33-152.63C1547.57 89.9 1315.13 0 1061.73 0v244.62c171.73 2.09 330.88 54.36 460.71 144.27z" style="fill:url(#id5);fill-rule:nonzero"/><path class="fil0" d="M2125.56 1062.12c0-64.81-6.28-127.54-16.75-190.26l-228.27 169.35v20.91c0 240.44-104.7 455.79-270.14 604.24l165.44 181.9c213.6-192.36 349.72-474.61 349.72-786.14z"/><path d="M1061.73 1877.53c-240.82 0-456.52-104.54-605.2-269.71l-182.2 165.17c194.76 215.35 475.38 349.16 787.4 349.16v-244.62z" style="fill:url(#id3);fill-rule:nonzero"/><path d="m515.16 457.88-165.43-181.9C134.03 470.43 0 750.59 0 1062.12h245.02c0-238.35 104.71-455.79 270.14-604.24z" style="fill:url(#id4);fill-rule:nonzero"/></g></svg>