<svg xmlns="http://www.w3.org/2000/svg" xml:space="preserve" width="300" height="52" style="shape-rendering:geometricPrecision;text-rendering:geometricPrecision;image-rendering:optimizeQuality;fill-rule:evenodd;clip-rule:evenodd" viewBox="0 0 126.28 21.86"><path d="M0 9.6v.36h7.41c.17-.28 1.11-1.92 1.17-2.09h-6c.06-.12.55-1.42.74-1.47h6.04c.1-.01.56-.89.64-1.03.17-.33.44-.73.58-1.07H5.06c.17-.18.35-.32.55-.48.19-.14.38-.26.59-.4.36-.23.87-.48 1.32-.66a8.74 8.74 0 0 1 6.7 0c.62.25 2.07 1.03 2.46 1.54h-5.51c.07.2 1.09 1.95 1.18 2.1h6.15c.07.23.61 1.07.64 1.47h-5.96l1.12 2.09h7.46c0-1.85-1.33-4.91-2.74-6.33-.5-.5-.74-.79-1.32-1.25-.71-.57-1.56-1.08-2.43-1.46-4.26-1.88-9.4-.8-12.4 2.55C1.77 4.7.99 5.91.46 7.53c-.1.32-.2.68-.27 1.02-.06.24-.13.88-.19 1.05zm0 2.77c.08.18.22 1.63.44 1.75h5.77c-.12.15-3.63 3.66-3.79 3.76.04.1 0 .02.04.08l.66.75c.19.18.64.52.76.7.21-.1 2.66-2.64 2.9-2.87.28-.29.63-.68.93-.92v5.76c.02.09.14.1.23.12.83.21.95.23 1.87.36v-9.84H0v.35zm14 9.08.01-7.35h5.1l-.03.09c-.39.95-.85 1.65-1.36 2.32-.07.09-.4.41-.42.5l-.01 2.78c.23-.13.67-.51.88-.68l.39-.39c.08-.08.11-.12.18-.2.59-.64.96-1.04 1.49-1.93.74-1.25.98-1.94 1.29-3.32.12-.57.03-.88.24-1.26h-9.83v9.85c.77-.09 1.36-.24 2.07-.41z" style="fill:#0350f2"/><path d="M9.81 21.86c.06-.09.03-.17.03-.31v-9.57H0v.04h9.81v9.84z" style="fill:#becff9"/><path d="M14 21.45c.05-.06.03.06.05-.1v-7.21h4.44c.16 0 .47-.06.59.05l.03-.09h-5.1L14 21.45z" style="fill:#86a4f7"/><path d="M32.81 11.68c-.34.13-.73.2-1.16.2h-1.9v2.98h-1.74V6.55h3.78c.44 0 .83.06 1.15.18.33.12.6.29.82.53.21.23.37.5.48.83.1.33.15.7.15 1.12 0 .39-.06.75-.18 1.07-.13.33-.31.61-.54.85-.24.23-.53.42-.86.55zm-3.06-1.24h1.65c.39 0 .7-.1.92-.29.22-.19.34-.5.34-.94 0-.22-.03-.4-.09-.56-.06-.15-.14-.28-.25-.38-.11-.1-.24-.17-.4-.22-.15-.05-.33-.07-.52-.07h-1.65v2.46zm11.17 4.3c-.5-.23-.91-.53-1.25-.92-.33-.39-.58-.85-.74-1.39-.17-.53-.25-1.11-.25-1.72 0-.63.08-1.2.25-1.74.16-.53.41-.99.74-1.38.34-.39.75-.7 1.25-.92.51-.22 1.09-.33 1.76-.33.61 0 1.17.11 1.66.33.49.22.91.53 1.26.92.34.39.61.85.79 1.38.19.54.28 1.11.28 1.74 0 .61-.09 1.19-.28 1.72-.18.54-.45 1-.79 1.39-.35.39-.77.69-1.26.92-.49.22-1.05.33-1.66.33-.67 0-1.25-.11-1.76-.33zm-.51-4.03c0 .41.06.79.16 1.14.11.35.25.65.45.91.19.25.43.45.71.59.28.14.59.22.95.22.35 0 .67-.08.95-.22.28-.14.51-.34.71-.59.19-.26.34-.56.44-.91.1-.35.15-.73.15-1.14 0-.42-.05-.8-.15-1.15-.1-.35-.25-.65-.44-.91-.2-.25-.43-.45-.71-.59-.28-.15-.6-.22-.95-.22-.36 0-.67.07-.95.22-.28.14-.52.34-.71.59-.2.26-.35.56-.45.91-.1.35-.16.73-.16 1.15zM54 13.37c.25.13.53.2.85.2.36 0 .66-.06.89-.17.23-.12.41-.25.55-.42.14-.16.24-.33.31-.5.07-.18.12-.34.16-.47h1.72c-.09.52-.25.97-.47 1.36-.22.38-.48.7-.79.95-.32.25-.67.44-1.06.56-.39.13-.81.19-1.25.19-.61 0-1.16-.1-1.64-.31-.48-.2-.88-.5-1.2-.88-.33-.38-.58-.84-.75-1.37-.17-.54-.25-1.14-.25-1.8 0-.52.05-.98.14-1.4.1-.41.24-.78.41-1.1.18-.33.39-.6.62-.84.24-.23.5-.43.78-.58.28-.15.58-.27.89-.34.31-.08.62-.11.94-.11.45 0 .85.04 1.2.14a3.347 3.347 0 0 1 1.6.92c.18.2.34.42.46.63.11.22.2.44.26.65.06.22.1.42.11.6h-1.73c-.03-.08-.05-.17-.09-.28-.03-.1-.08-.2-.14-.31a1.491 1.491 0 0 0-.55-.58c-.13-.08-.29-.14-.47-.19-.19-.05-.4-.08-.65-.08-.11 0-.23.02-.38.04-.14.03-.29.08-.44.15-.15.07-.3.18-.45.31-.14.13-.27.31-.39.52-.11.21-.21.47-.28.77-.07.3-.11.66-.11 1.08 0 .44.05.84.14 1.2.1.35.23.65.41.9.18.24.39.43.65.56zM65.03 8.3c-.13.12-.24.26-.31.41-.08.15-.13.29-.17.42h-1.74c.07-.44.19-.83.38-1.17.19-.35.44-.64.74-.88s.65-.42 1.06-.55c.41-.13.86-.19 1.36-.19.42 0 .81.05 1.16.16.35.11.67.26.95.45.29.19.53.42.74.69.22.26.39.56.53.88.14.32.25.66.32 1.02s.11.73.11 1.11c0 .61-.06 1.14-.18 1.6-.13.45-.29.84-.49 1.17-.2.33-.43.6-.7.81-.26.21-.53.38-.81.51-.28.12-.56.21-.84.26-.28.05-.54.07-.77.07-.51 0-.97-.07-1.37-.23-.4-.15-.75-.35-1.05-.61-.29-.26-.54-.57-.72-.92-.19-.35-.33-.73-.41-1.14h1.74c.06.17.13.34.22.51.09.16.2.31.33.45.14.13.3.23.49.31.19.09.42.13.67.13.33-.01.62-.06.87-.17.26-.1.48-.25.66-.44.18-.19.31-.42.41-.68.09-.27.14-.56.14-.89h-2.73v-1.37h2.71c0-.13-.02-.28-.05-.43a2.214 2.214 0 0 0-.43-.95c-.11-.15-.24-.29-.4-.41-.15-.11-.34-.21-.54-.28-.21-.07-.44-.11-.71-.11-.27 0-.5.05-.69.13-.19.09-.35.2-.48.33zm10.89-1.75h5.8v8.31h-1.73V7.98h-2.44v1.25c.01.76-.01 1.43-.04 2.01-.04.58-.1 1.08-.17 1.51-.08.43-.18.79-.3 1.08-.12.29-.26.52-.42.7-.16.17-.35.3-.55.37-.21.08-.44.11-.69.11-.2 0-.38-.01-.54-.03a2.02 2.02 0 0 1-.46-.14l-.01-1.58c.05.02.11.04.17.06.06.02.11.03.17.04.06.01.11.02.15.02h.11c.11 0 .2-.01.29-.04.09-.02.17-.09.24-.18.07-.1.13-.23.18-.41.05-.18.1-.41.14-.7.03-.3.06-.66.08-1.1.01-.43.02-.95.02-1.55V6.55zm10 0h6.81v1.43h-2.54v6.88h-1.74V7.98h-2.53V6.55zM99 14.74c-.51-.23-.92-.53-1.26-.92a3.94 3.94 0 0 1-.74-1.39c-.17-.53-.25-1.11-.25-1.72 0-.63.08-1.2.25-1.74.17-.53.41-.99.74-1.38.34-.39.75-.7 1.26-.92.5-.22 1.08-.33 1.75-.33.61 0 1.17.11 1.66.33.5.22.91.53 1.26.92s.61.85.8 1.38c.18.54.27 1.11.27 1.74 0 .61-.09 1.19-.27 1.72-.19.54-.45 1-.8 1.39-.35.39-.76.69-1.26.92-.49.22-1.05.33-1.66.33-.67 0-1.25-.11-1.75-.33zm-.51-4.03c0 .41.05.79.15 1.14.11.35.26.65.45.91.19.25.43.45.71.59.28.14.59.22.95.22.35 0 .67-.08.95-.22.28-.14.51-.34.71-.59.19-.26.34-.56.44-.91.11-.35.16-.73.16-1.14 0-.42-.05-.8-.16-1.15-.1-.35-.25-.65-.44-.91-.2-.25-.43-.45-.71-.59-.28-.15-.6-.22-.95-.22-.36 0-.67.07-.95.22-.28.14-.52.34-.71.59-.19.26-.35.56-.45.91-.1.35-.15.73-.15 1.15zm15.88.97c-.34.13-.72.2-1.15.2h-1.9v2.98h-1.74V6.55h3.78c.44 0 .82.06 1.15.18.33.12.6.29.81.53.22.23.38.5.48.83.11.33.16.7.16 1.12 0 .39-.06.75-.19 1.07-.12.33-.3.61-.54.85-.23.23-.52.42-.86.55zm-3.05-1.24h1.64c.39 0 .7-.1.93-.29.22-.19.33-.5.33-.94 0-.22-.03-.4-.08-.56-.06-.15-.14-.28-.25-.38-.11-.1-.24-.17-.4-.22-.15-.05-.33-.07-.53-.07h-1.64v2.46zm9.37-3.89h5.59v1.43h-3.86v6.88h-1.73V6.55z" style="fill:#2b2b2a;fill-rule:nonzero"/></svg>