<svg xmlns="http://www.w3.org/2000/svg" xml:space="preserve" width="299" height="70" style="shape-rendering:geometricPrecision;text-rendering:geometricPrecision;image-rendering:optimizeQuality;fill-rule:evenodd;clip-rule:evenodd" viewBox="0 0 1651.19 386.53"><path d="M914.11 154.59V53.02h57.05v7.89h-48.33v93.68h-8.72zm92.44 0V53.02h8.73v89.55l64.68-89.55h8.16v101.57h-8.73V66.54l-63.9 88.05h-8.94zm119.82-51.5c0-6.2 1.07-12.28 3.22-18.24 2.14-5.96 5.27-11.4 9.37-16.31 4.1-4.91 9.13-8.82 15.09-11.73 5.96-2.91 12.76-4.36 20.38-4.36 9.06 0 16.81 2.07 23.25 6.22 6.44 4.15 11.18 9.46 14.24 15.95l-7.02 4.15c-2.28-4.48-5.12-8.09-8.51-10.8-3.38-2.72-7.01-4.65-10.87-5.8-3.86-1.14-7.75-1.71-11.66-1.71-6.2 0-11.71 1.24-16.52 3.72-4.82 2.48-8.89 5.79-12.23 9.94-3.34 4.15-5.84 8.8-7.51 13.95-1.67 5.14-2.51 10.34-2.51 15.59 0 5.72 1.01 11.23 3.01 16.52 2 5.29 4.77 9.97 8.3 14.02 3.53 4.05 7.67 7.27 12.44 9.66 4.77 2.38 9.92 3.57 15.45 3.57 4.01 0 8.06-.66 12.16-2 4.1-1.33 7.94-3.43 11.52-6.29 3.57-2.86 6.46-6.54 8.65-11.02l7.44 3.72c-2.19 5.06-5.48 9.35-9.87 12.88-4.39 3.53-9.25 6.2-14.59 8.01-5.34 1.81-10.64 2.72-15.88 2.72-6.87 0-13.21-1.51-19.03-4.51-5.81-3-10.84-7.01-15.09-12.02-4.24-5-7.51-10.63-9.8-16.88-2.29-6.25-3.43-12.56-3.43-18.95z" style="fill:#0065dd;fill-rule:nonzero;stroke:#0065dd;stroke-width:2.32;stroke-miterlimit:22.9256"/><path d="M624.6 124.7v12.58h12.56V124.7zm0-62.3v12.57h12.56V62.4zM458.05 353.2v12.53h12.56V353.2zm-83.3 0v12.53h12.61V353.2zm333.14 0v12.53h12.56V353.2zm0-228.5v12.58h12.56V124.7zm20.81 0v12.58h12.56V124.7zM541.3 353.2v12.53h12.61V353.2zM208.2 124.7v12.58h12.56V124.7zm124.9-20.75v12.53h12.6v-12.53zm0 20.75v12.58h12.6V124.7zm333.15 0v12.58h12.56V124.7zm0-62.3v12.57h12.56V62.4zm41.64 0v12.57h12.56V62.4zM499.7 353.2v12.53h12.56V353.2zm-83.3 0v12.53h12.56V353.2zm166.55 0v12.53h12.6V353.2zm0-228.5v12.58h12.6V124.7zm0-20.75v12.53h12.6v-12.53zm-291.45 83.1v12.53h12.56v-12.53zm333.1 0v12.53h12.56v-12.53zm-166.55 0v12.53h12.56v-12.53zm-333.14 0v12.53h12.6v-12.53zm249.84 0v12.53h12.61v-12.53zm166.55 0v12.53h12.61v-12.53zm-333.1 0v12.53h12.56v-12.53zm124.9 0v12.53h12.6v-12.53zm0-124.65v12.57h12.6V62.4zm333.15 124.65v12.53h12.56v-12.53zm-166.55 0v12.53h12.56v-12.53zm-333.15 0v12.53h12.61v-12.53zm249.85 0v12.53h12.56v-12.53zm0-41.55v12.53h12.56V145.5zm166.55 41.55v12.53h12.6v-12.53zm-333.1 0v12.53h12.56v-12.53zm41.65-62.35v12.58h12.56V124.7zm353.94 0v12.58h12.57V124.7zm0-62.3v12.57h12.57V62.4zM478.85 353.2v12.53h12.6V353.2zm-83.25 0v12.53h12.56V353.2zm166.54 0v12.53h12.57V353.2zm0-228.5v12.58h12.57V124.7zm-333.14 0v12.58h12.61V124.7zm124.95-20.75v12.53h12.56v-12.53zm0 249.25v12.53h12.56V353.2zm333.1-228.5v12.58h12.6V124.7zm0-62.3v12.57h12.6V62.4zm41.65 0v12.57h12.6V62.4zm0-20.75v12.53h12.6V41.65zM520.5 353.2v12.53h12.56V353.2zm0-228.5v12.58h12.56V124.7zm-83.3 228.5v12.53h12.61V353.2zm0-228.5v12.58h12.61V124.7zm20.85 0v12.58h12.56V124.7zm-20.85-20.75v12.53h12.61v-12.53zm166.59 20.75v12.58h12.56V124.7zM312.3 187.05v12.53h12.56v-12.53zm333.14 0v12.53h12.57v-12.53zm-166.59 0v12.53h12.6v-12.53zm-333.1 0v12.53h12.56v-12.53zm249.85 0v12.53h12.56v-12.53zm166.54 0v12.53h12.57v-12.53zm-333.14 0v12.53h12.61v-12.53zm124.95 0v12.53h12.56v-12.53zm0-124.65v12.57h12.56V62.4zM520.5 187.05v12.53h12.56v-12.53zm-333.11 0v12.53h12.57v-12.53zm249.81 0v12.53h12.61v-12.53zm166.59 0v12.53h12.56v-12.53zm-333.14 0v12.53h12.61v-12.53zm20.85 83.05v12.58h12.56V270.1zm333.1 0v12.58h12.56V270.1zm-166.55 0v12.58h12.56V270.1zm-333.14 0v12.58h12.6V270.1zm249.84 0v12.58h12.61V270.1zm333.14 0v12.58h12.56V270.1zm0-20.75v12.53h12.56v-12.53zM541.3 270.1v12.58h12.61V270.1zm-333.1 0v12.58h12.56V270.1zm124.9 0v12.58h12.6V270.1zm166.6 0v12.58h12.56V270.1zm-333.15 0v12.58h12.61V270.1zm0 20.8v12.53h12.61V290.9zm249.85-20.8v12.58h12.56V270.1zm166.55 0v12.58h12.6V270.1zm-333.1 0v12.58h12.56V270.1zm62.45 0v12.58h12.56V270.1zm333.14 0v12.58h12.57V270.1zm-166.59 0v12.58h12.6V270.1zm-333.1 0v12.58h12.56V270.1zm249.85 0v12.58h12.56V270.1zm333.1 0v12.58h12.56V270.1zm-166.56 0v12.58h12.57V270.1zm-333.14 0v12.58h12.61V270.1zm124.95 0v12.58h12.56V270.1zm333.1 0v12.58h12.6V270.1zm-20.8 0v12.58h12.56V270.1zm-145.75 0v12.58h12.56V270.1zm-333.11 0v12.58h12.57V270.1zm0 20.8v12.53h12.57V290.9zm249.81-20.8v12.58h12.61V270.1zm-333.1 0v12.58h12.56V270.1zm499.69 0v12.58h12.56V270.1zm-333.14 0v12.58h12.61V270.1zm20.85 41.55v12.54h12.56v-12.54zM624.6 83.19v12.54h12.56V83.19zM458.05 311.65v12.54h12.56v-12.54zm0 62.31v12.57h12.56v-12.57zm-333.14-62.31v12.54h12.6v-12.54zm20.84 0v12.54h12.56v-12.54zm229 0v12.54h12.61v-12.54zm0 62.31v12.57h12.61v-12.57zm333.14-62.31v12.54h12.56v-12.54zm-166.59 0v12.54h12.61v-12.54zm0 62.31v12.57h12.61v-12.57zm-333.1-62.31v12.54h12.56v-12.54zm124.9 0v12.54h12.6v-12.54zm333.15 0v12.54h12.56v-12.54zm0-228.46v12.54h12.56V83.19zm41.64 0v12.54h12.56V83.19zm-41.64-62.34v12.57h12.56V20.85zm41.64 0v12.57h12.56V20.85zm0-20.76v12.54h12.56V.09zM499.7 311.65v12.54h12.56v-12.54zm-83.3 0v12.54h12.56v-12.54zm0 62.31v12.57h12.56v-12.57zM83.3 311.65v12.54h12.56v-12.54zm-20.85 0v12.54h12.61v-12.54zm520.5 0v12.54h12.6v-12.54zm-333.1 0v12.54h12.56v-12.54zM624.6 145.5v12.53h12.56V145.5zm-166.55 0v12.53h12.56V145.5zm249.84 0v12.53h12.56V145.5zm20.81 0v12.53h12.56V145.5zm20.84 0v12.53h12.56V145.5zm-20.84 20.75v12.58h12.56v-12.58zm20.84 0v12.58h12.56v-12.58zM208.2 145.5v12.53h12.56V145.5zm458.05 0v12.53h12.56V145.5zm20.8 0v12.53h12.6V145.5zm-187.35 0v12.53h12.56V145.5zm-20.85 0v12.53h12.6V145.5zm-312.3 0v12.53h12.61V145.5zm416.4 0v12.53h12.6V145.5zm-333.1 0v12.53h12.56V145.5zm62.45 166.15v12.54h12.56v-12.54zm333.14 0v12.54h12.57v-12.54zm0-228.46v12.54h12.57V83.19zm0-62.34v12.57h12.57V20.85zm41.61 0v12.57h12.6V20.85zm0-20.76v12.54h12.6V.09zm-208.2 311.56v12.54h12.6v-12.54zm-83.25 0v12.54h12.56v-12.54zm0 62.31v12.57h12.56v-12.57zm166.54-62.31v12.54h12.57v-12.54zm-333.14 0v12.54h12.61v-12.54zm124.95 0v12.54h12.56v-12.54zm333.1 0v12.54h12.6v-12.54zm0-228.46v12.54h12.6V83.19zm41.65 0v12.54h12.6V83.19zM520.5 311.65v12.54h12.56v-12.54zm-83.3 0v12.54h12.61v-12.54zm0 62.31v12.57h12.61v-12.57zm-333.1-62.31v12.54h12.56v-12.54zm0 62.31v12.57h12.56v-12.57zm166.55-62.31v12.54h12.61v-12.54zM291.5 145.5v12.53h12.56V145.5zm353.94 0v12.53h12.57V145.5zm124.9 20.75v12.58h12.56v-12.58zm-208.2-20.75v12.53h12.57V145.5zm-333.14 0v12.53h12.61V145.5zm-41.61 0v12.53h12.57V145.5zm249.81 0v12.53h12.61V145.5zm166.59 0v12.53h12.56V145.5zM291.5 228.55v12.58h12.56v-12.58zm333.1 0v12.58h12.56v-12.58zm-166.55 0v12.58h12.56v-12.58zm-333.14 0v12.58h12.6v-12.58zm249.84 0v12.58h12.61v-12.58zm166.55 0v12.58h12.61v-12.58zm-333.1 0v12.58h12.56v-12.58zm124.9 0v12.58h12.6v-12.58zm166.6 0v12.58h12.56v-12.58zm-333.15 0v12.58h12.61v-12.58zm249.85 0v12.58h12.56v-12.58zm166.55 0v12.58h12.6v-12.58zm-478.85 0v12.58h12.56v-12.58zm145.75 0v12.58h12.56v-12.58zm62.45 0v12.58h12.56v-12.58zm333.14 0v12.58h12.57v-12.58zm-166.59 0v12.58h12.6v-12.58zm-333.1 0v12.58h12.56v-12.58zm249.85 0v12.58h12.56v-12.58zm166.54 0v12.58h12.57v-12.58zm-333.14 0v12.58h12.61v-12.58zm124.95 0v12.58h12.56v-12.58zm166.55 0v12.58h12.56v-12.58zm-333.11 0v12.58h12.57v-12.58zM20.8 311.65v12.54h12.61v-12.54zm416.4-83.1v12.58h12.61v-12.58zm166.59 0v12.58h12.56v-12.58zm-333.14 0v12.58h12.61v-12.58zm353.95-124.6v12.53h12.56v-12.53zm0-62.3v12.53h12.56V41.65zm-166.55 290.8v12.53h12.56v-12.53zm-83.3 0v12.53h12.61v-12.53zm333.14 0v12.53h12.56v-12.53zm0-228.5v12.53h12.56v-12.53zM541.3 332.45v12.53h12.61v-12.53zm0-228.5v12.53h12.61v-12.53zm0-20.76v12.54h12.61V83.19zM333.1 332.45v12.53h12.6v-12.53zm333.15-228.5v12.53h12.56v-12.53zm0-62.3v12.53h12.56V41.65zm41.64 0v12.53h12.56V41.65zM499.7 332.45v12.53h12.56v-12.53zm-83.3 0v12.53h12.56v-12.53zm-333.1 0v12.53h12.56v-12.53zm499.65 0v12.53h12.6v-12.53zM291.5 166.25v12.58h12.56v-12.58zm333.1 0v12.58h12.56v-12.58zm-166.55 0v12.58h12.56v-12.58zm-83.3 0v12.58h12.61v-12.58zm333.14 0v12.58h12.56v-12.58zm-166.59 0v12.58h12.61v-12.58zm0-20.75v12.53h12.61V145.5zm-333.1 20.75v12.58h12.56v-12.58zm124.9 0v12.58h12.6v-12.58zm333.15 0v12.58h12.56v-12.58zm20.8 0v12.58h12.6v-12.58zm-187.35 0v12.58h12.56v-12.58zm-333.15 0v12.58h12.61v-12.58zm249.85 0v12.58h12.56v-12.58zm0-41.55v12.58h12.56V124.7zm0-41.51v12.54h12.56V83.19zm166.55 83.06v12.58h12.6v-12.58zm-333.1 0v12.58h12.56v-12.58zm62.45 166.2v12.53h12.56v-12.53zm333.14-228.5v12.53h12.57v-12.53zm0-62.3v12.53h12.57V41.65zm41.61 0v12.53h12.6V41.65zm-208.2 290.8v12.53h12.6v-12.53zm-83.25 0v12.53h12.56v-12.53zm166.54 0v12.53h12.57v-12.53zm-333.14 0v12.53h12.61v-12.53zm124.95 0v12.53h12.56v-12.53zm333.1 0v12.53h12.6v-12.53zm0-228.5v12.53h12.6v-12.53zM520.5 332.45v12.53h12.56v-12.53zm-83.3 0v12.53h12.61v-12.53zm0-249.26v12.54h12.61V83.19zM104.1 332.45v12.53h12.56v-12.53zm499.69-228.5v12.53h12.56v-12.53zm-291.49 62.3v12.58h12.56v-12.58zm0-41.55v12.58h12.56V124.7zm333.14 41.55v12.58h12.57v-12.58zm-166.59 0v12.58h12.6v-12.58zm0-41.55v12.58h12.6V124.7zm-333.1 41.55v12.58h12.56v-12.58zm249.85 0v12.58h12.56v-12.58zm374.74 20.8v12.53h12.56v-12.53zm-208.2-20.8v12.58h12.57v-12.58zm-333.14 0v12.58h12.61v-12.58zm-145.7 0v12.58h12.56v-12.58zm270.65 0v12.58h12.56v-12.58zm166.55 0v12.58h12.56v-12.58zm0-20.75v12.53h12.56V145.5zm-333.11 20.75v12.58h12.57v-12.58zm249.81 0v12.58h12.61v-12.58zm166.59 0v12.58h12.56v-12.58zm-333.14 0v12.58h12.61v-12.58zm-145.74 0v12.58h12.6v-12.58zm166.59 83.1v12.53h12.56v-12.53zm333.1 0v12.53h12.56v-12.53zm-166.55 0v12.53h12.56v-12.53zm-333.14 0v12.53h12.6v-12.53zm0 83.1v12.53h12.6v-12.53zm249.84-83.1v12.53h12.61v-12.53zm166.55 0v12.53h12.61v-12.53zm-333.1 0v12.53h12.56v-12.53zm124.9 0v12.53h12.6v-12.53zm166.6 0v12.53h12.56v-12.53zm-333.15 0v12.53h12.61v-12.53zm249.85 0v12.53h12.56v-12.53zm166.55 0v12.53h12.6v-12.53zm-478.85 0v12.53h12.56v-12.53zm145.75 0v12.53h12.56v-12.53zm62.45 0v12.53h12.56v-12.53zm333.14 0v12.53h12.57v-12.53zm-166.59 0v12.53h12.6v-12.53zm-333.1 0v12.53h12.56v-12.53zm249.85 0v12.53h12.56v-12.53zm166.54 0v12.53h12.57v-12.53zm-333.14 0v12.53h12.61v-12.53zm124.95 0v12.53h12.56v-12.53zm166.55 0v12.53h12.56v-12.53zm-333.11 0v12.53h12.57v-12.53zm249.81 0v12.53h12.61v-12.53zm166.59 0v12.53h12.56v-12.53zm-333.14 0v12.53h12.61v-12.53zm20.85 41.55v12.53h12.56V290.9zm333.1 0v12.53h12.56V290.9zm-166.55 0v12.53h12.56V290.9zm-333.14 0v12.53h12.6V290.9zm249.84 0v12.53h12.61V290.9zm333.14 0v12.53h12.56V290.9zm-166.59 0v12.53h12.61V290.9zm-333.1 0v12.53h12.56V290.9zm124.9 0v12.53h12.6V290.9zm333.15 0v12.53h12.56V290.9zm-166.55 0v12.53h12.56V290.9zm-83.3 0v12.53h12.56V290.9zm-333.1 0v12.53h12.56V290.9zm499.65 0v12.53h12.6V290.9zm-333.1 0v12.53h12.56V290.9zm62.45 0v12.53h12.56V290.9zm333.14 0v12.53h12.57V290.9zm-166.59 0v12.53h12.6V290.9zm-333.1 0v12.53h12.56V290.9zm249.85 0v12.53h12.56V290.9zm333.1 0v12.53h12.56V290.9zm-166.56 0v12.53h12.57V290.9zm-333.14 0v12.53h12.61V290.9zm124.95 0v12.53h12.56V290.9zm333.1 0v12.53h12.6V290.9zm-166.55 0v12.53h12.56V290.9zm-83.3 0v12.53h12.61V290.9zm-333.1 0v12.53h12.56V290.9zm0 62.3v12.53h12.56V353.2zm499.69-62.3v12.53h12.56V290.9zm-333.14 0v12.53h12.61V290.9zm20.85-83.1v12.53h12.56V207.8zm333.1 0v12.53h12.56V207.8zm-166.55 0v12.53h12.56V207.8zm-333.14 0v12.53h12.6V207.8zm249.84 0v12.53h12.61V207.8zm166.55 0v12.53h12.61V207.8zm-333.1 0v12.53h12.56V207.8zM41.65 290.9v12.53h12.56V290.9zm291.45-83.1v12.53h12.6V207.8zm166.6 0v12.53h12.56V207.8zm-333.15 0v12.53h12.61V207.8zM0 290.9v12.53h12.56V290.9zm416.4-83.1v12.53h12.56V207.8zm166.55 0v12.53h12.6V207.8zm-333.1 0v12.53h12.56V207.8zm62.45 0v12.53h12.56V207.8zm333.14 0v12.53h12.57V207.8zm-166.59 0v12.53h12.6V207.8zm-333.1 0v12.53h12.56V207.8zm249.85 0v12.53h12.56V207.8zm166.54 0v12.53h12.57V207.8zm-333.14 0v12.53h12.61V207.8zm124.95 0v12.53h12.56V207.8zm166.55 0v12.53h12.56V207.8zm-333.11 0v12.53h12.57V207.8zM20.8 290.9v12.53h12.61V290.9zm416.4-83.1v12.53h12.61V207.8zm166.59 0v12.53h12.56V207.8zm-333.14 0v12.53h12.61V207.8z" style="fill:#0065dd"/><path style="fill:none" d="M845.73 0h805.46v362.46H845.73z"/><path d="M985.18 154.19v10.13h-71.07L983.69 62.8v10.19H925v33.35h47.08v10.12H925v37.73m156.53 10.13V82.41l-62.38 81.91h-9.41V62.8h10.91v81.98l62.29-81.98h9.42v101.52" style="fill:none;fill-rule:nonzero"/><path d="M997.63 234.19h-36.54v93.68h-10.44v-93.68h-36.54v-9.28h83.52v9.28zm58.57 94.4c-7.25 0-13.83-1.45-19.72-4.35-5.9-2.9-11-6.84-15.3-11.82a54.684 54.684 0 0 1-9.94-16.82c-2.32-6.24-3.48-12.64-3.48-19.21 0-6.86 1.24-13.42 3.7-19.65 2.47-6.23 5.9-11.79 10.3-16.68 4.4-4.88 9.54-8.75 15.44-11.6 5.9-2.85 12.28-4.28 19.14-4.28 7.25 0 13.83 1.51 19.72 4.5 5.9 3 10.95 7.01 15.16 12.04 4.2 5.02 7.46 10.63 9.78 16.82 2.32 6.18 3.48 12.52 3.48 18.99 0 6.87-1.2 13.42-3.62 19.65-2.42 6.24-5.8 11.79-10.15 16.68a48.181 48.181 0 0 1-15.37 11.53c-5.9 2.8-12.28 4.2-19.14 4.2zm-37.85-52.2c0 5.51.92 10.85 2.75 16.02 1.84 5.17 4.43 9.74 7.76 13.7 3.34 3.97 7.33 7.13 11.97 9.5 4.64 2.37 9.76 3.56 15.37 3.56 5.8 0 11.04-1.24 15.73-3.7 4.69-2.47 8.68-5.73 11.96-9.79 3.29-4.06 5.8-8.65 7.54-13.78 1.74-5.12 2.62-10.29 2.62-15.51 0-5.51-.92-10.83-2.76-15.95-1.84-5.12-4.45-9.69-7.83-13.71-3.38-4.01-7.4-7.17-12.04-9.49-4.64-2.32-9.71-3.48-15.22-3.48-5.8 0-11.02 1.2-15.66 3.62-4.64 2.42-8.61 5.66-11.89 9.72-3.29 4.06-5.83 8.63-7.62 13.7a46.554 46.554 0 0 0-2.68 15.59zm110.36 51.48V224.91h42.63c4.45 0 8.53.92 12.25 2.76a30.18 30.18 0 0 1 9.65 7.46c2.71 3.15 4.83 6.63 6.38 10.44 1.55 3.82 2.32 7.76 2.32 11.82 0 5.51-1.23 10.76-3.7 15.74-2.46 4.97-5.92 9.04-10.37 12.18-4.44 3.14-9.66 4.71-15.66 4.71h-33.2v37.85h-10.3zm10.3-47.28h32.62c4.06 0 7.57-1.06 10.52-3.19 2.95-2.12 5.24-4.98 6.88-8.55 1.65-3.58 2.47-7.4 2.47-11.46 0-4.35-.97-8.26-2.9-11.74-1.93-3.48-4.45-6.26-7.54-8.34s-6.53-3.12-10.3-3.12h-31.75v46.4zm85.03 47.28V224.91h58.58v9.31h-48.19v93.65h-10.39zm80.61 0V224.91h10.39v88.6l63.37-88.6h9.69v102.96h-10.37v-87.06l-62.62 87.06h-10.46z" style="fill:#334059;fill-rule:nonzero"/></svg>