<svg xmlns="http://www.w3.org/2000/svg" xml:space="preserve" width="330" height="127" style="shape-rendering:geometricPrecision;text-rendering:geometricPrecision;image-rendering:optimizeQuality;fill-rule:evenodd;clip-rule:evenodd" viewBox="0 0 330 123.27"><defs><style>.fil1{fill:#007eee;fill-rule:nonzero}</style></defs><path d="M289.01 40.89h-20.7c-12.43 0-19.12 10.37-20.77 21.67l-5.9 40.44 74.69.06c3.7 0 6.72 3.02 6.72 6.72-.01 3.71-3.03 6.72-6.73 6.72l-82.46-.07c-2.02 0-3.76-.8-5.08-2.33-1.32-1.52-1.86-3.36-1.57-5.36l7.03-48.12c2.64-18.06 14.78-33.17 34.07-33.17h27.43c3.7 0 6.72 3.02 6.72 6.72v54.94c0 3.7-3.02 6.72-6.73 6.72-3.7 0-6.72-3.02-6.72-6.72V40.89zm-95.68 41.48h9.36c3.09-6.46 4.68-13.52 4.68-20.74 0-26.61-21.57-48.18-48.19-48.18-26.61 0-48.18 21.57-48.18 48.18 0 26.63 21.58 48.15 48.19 48.19l6.67.01c3.7 0 6.71 3.03 6.71 6.73-.01 3.7-3.03 6.72-6.73 6.71l-6.67-.01c-34.02-.04-61.62-27.59-61.62-61.63C97.55 27.6 125.15 0 159.18 0c34.04 0 61.63 27.6 61.63 61.63 0 10.85-2.82 21.44-8.25 30.83-1.24 2.14-3.36 3.36-5.82 3.36h-20.13c-3.7 0-6.71-3.02-6.72-6.72l-.02-27.5c0-11.44-9.26-20.71-20.7-20.71-11.43 0-20.7 9.26-20.7 20.7 0 11.47 9.31 20.72 20.66 20.77l6.85-.07c3.71-.05 6.76 2.94 6.8 6.64.04 3.7-2.95 6.76-6.65 6.8l-6.85.07h-.11c-18.84-.08-34.14-15.34-34.14-34.21 0-18.86 15.29-34.14 34.14-34.14 18.86 0 34.14 15.29 34.15 34.14l.01 20.78zM33.97 95.96l.01 13.71c0 3.7-3.02 6.72-6.72 6.72-3.71.01-6.73-3.01-6.73-6.71V95.97l-13.8.01c-3.7 0-6.73-3.02-6.73-6.72 0-3.7 3.02-6.72 6.72-6.73l48.01-.03c11.47-.01 20.64-9.51 20.64-20.91 0-11.43-9.26-20.7-20.7-20.7H33.96l-.05 27.66c0 3.7-3.03 6.71-6.73 6.71-3.7-.01-6.72-3.03-6.71-6.74l.06-34.36c0-3.7 3.02-6.71 6.72-6.71h27.43c18.85 0 34.14 15.29 34.14 34.14 0 18.82-15.2 34.34-34.09 34.36l-20.76.01z" style="fill:#007eee" id="Слой_x0020_1"/></svg>