<svg xmlns="http://www.w3.org/2000/svg" xml:space="preserve" width="763.011" height="201.831" style="shape-rendering:geometricPrecision;text-rendering:geometricPrecision;image-rendering:optimizeQuality;fill-rule:evenodd;clip-rule:evenodd" viewBox="0 0 5143.33 1360.5"><defs><style>.fil1{fill:#d6b56e}</style></defs><g id="Слой_x0020_1"><path d="M120.68 684.15C43.57 610.96 0 509.96 0 403.37 0 189.63 173.28 16.35 387.02 16.35c103.29 0 201.42 40.86 274.18 113.9C734.77 47.31 839.58 0 950.75 0c213.74 0 387.03 173.29 387.03 387.03 0 112.92-48.88 219.32-134.15 292.96 85.22 73.75 134.15 180.5 134.15 293.49 0 213.74-173.28 387.02-387.03 387.02-109.19 0-212.41-45.68-285.88-126.17-73.02 75.27-172.73 117.61-277.84 117.61C173.29 1351.94.01 1178.66.01 964.92c0-106.6 43.5-207.56 120.68-280.77zm645.16 285.74.69-5.53 1.19 5.54 149.19.98-135.64-138.27-125.9-147.04-255.29 285.15 179.32-.98-.28 5.3c-5.29 102.12-89.83 182.26-192.11 182.26-106.25 0-192.39-86.13-192.39-192.37 0-79.88 49.33-150.81 122.47-179.28-63.56-11.54-123.11-38.78-173.57-79.44C72.02 773.49 31.7 866.54 31.7 964.92c0 196.25 159.08 355.31 355.31 355.31 192.4 0 350.02-153.27 355.17-345.58l.13-4.91 23.52.16zM545.3 373.65 542.54 363c-18.3-70.8-82.43-120.28-155.53-120.28-88.74 0-160.66 71.93-160.66 160.66 0 72.91 49.27 136.72 119.21 155.27l.39-187.42h1.24v-.47l198.09 2.89zm-142.98 29.64 253.13 278.93 259.39-277.14-155.61 1-.34-4.68c-.34-4.78-.54-9.57-.54-14.36 0-106.24 86.15-192.37 192.38-192.37 106.24 0 192.37 86.13 192.37 192.37 0 97.34-72.8 179.27-168.9 190.96v7.48c74.31 4.04 145.26 29.47 205.34 73.38 80.3-67.64 126.5-166.55 126.5-271.82 0-196.23-159.08-355.31-355.31-355.31-196.24 0-355.32 159.08-355.32 355.31 0 4.61.11 9.2.27 13.81l.19 5.28-193.55-2.83zm-56.71 406.36-.13.03c-70.28 18.67-119.12 82.59-119.12 155.24 0 88.74 71.92 160.66 160.66 160.66 74.75 0 139.6-51.69 156.44-123.93l-197.45 1.2-.05-20.17-.35-173.03zm446.87 192.13 1.2 5.62c15.86 73.91 81.5 126.75 157.05 126.75 88.74 0 160.66-71.93 160.66-160.66 0-80.29-59.53-149.67-139.08-159.49l-2.37 188.57-5.76.33-171.7-1.11zm179.29-455.57c78.99-11.99 139.61-78.04 139.61-159.18 0-88.73-71.91-160.66-160.66-160.66-83.97 0-153.57 64.66-160.15 147.77l178.9-1.02 2.3 173.08z" style="fill:#8f2c26"/><path class="fil1" d="m653.74 680.31 4.72-1.31-3 3.21-1.72-1.9zm112.1 289.58.69-5.53 1.19 5.54 149.19.98-135.64-138.27-125.9-147.04-255.29 285.15 179.32-.98-.28 5.3c-5.29 102.12-89.83 182.26-192.11 182.26-106.25 0-192.39-86.13-192.39-192.37 0-79.88 49.33-150.81 122.47-179.28-63.56-11.54-123.11-38.78-173.57-79.44C72.02 773.49 31.7 866.54 31.7 964.92c0 196.25 159.08 355.31 355.31 355.31 192.4 0 350.02-153.27 355.17-345.58l.13-4.91 23.52.16z"/><path class="fil1" d="m402.32 403.28 253.13 278.93 259.39-277.14-155.61 1-.34-4.68c-.34-4.78-.54-9.57-.54-14.36 0-106.24 86.15-192.37 192.38-192.37 106.24 0 192.37 86.13 192.37 192.37 0 97.34-72.8 179.27-168.9 190.96v7.48c74.31 4.04 145.26 29.47 205.34 73.38 80.3-67.64 126.5-166.55 126.5-271.82 0-196.23-159.08-355.31-355.31-355.31-196.24 0-355.32 159.08-355.32 355.31 0 4.61.11 9.2.27 13.81l.19 5.28-193.55-2.83z"/><path d="M1989.42 343.33h108.16v223.03h86.53c6.34-66.01 29.46-121.34 69.49-165.84 40.03-44.63 98.34-66.89 174.8-66.89 73.47 0 131.91 23.87 175.42 71.61 43.39 47.62 65.14 115.75 65.14 204.39 0 57.93-9.45 107.41-28.34 148.44-19.02 41.03-45.75 72.73-80.31 95.23s-77.58 33.82-129.05 33.82c-52.46 0-94.11-8.2-125.07-24.74-30.95-16.53-57.93-43.27-81.18-80.19-23.12-36.8-36.8-78.69-40.9-125.56h-86.53v220.8h-108.16V343.35zm302.85 267.42c0 59.55 11.69 105.42 35.18 137.62 23.5 32.32 56.44 48.48 99.08 48.48 43.76 0 76.58-16.04 98.46-48.11 21.88-32.08 32.82-80.06 32.82-144.21 0-61.42-12.68-106.42-37.92-134.89-25.24-28.47-57.56-42.77-97.1-42.77-38.41 0-69.74 14.42-94.11 43.26-24.24 28.97-36.43 75.84-36.43 140.61zm411.63-267.42h121.46l124.32 276.49 106.42-276.49h112.51l-180.64 405.91c-19.64 44.01-39.66 77.45-60.05 100.45s-46.62 34.44-78.94 34.44c-31.83 0-56.69-2.11-74.59-6.22V797.6c15.29 1 29.09 1.49 41.4 1.49 24.86 0 42.77-4.6 53.58-13.68 10.69-9.2 21.13-28.97 30.95-59.18l-196.43-382.91zm486.59 146.95h95.48v56.81c12.43-19.39 29.09-35.06 50.23-47.12 21.13-11.94 44.63-17.9 70.37-17.9 44.88 0 83.05 17.65 114.37 52.96 31.33 35.18 46.99 84.41 46.99 147.32 0 64.77-15.79 115-47.36 150.93-31.58 35.93-69.87 53.83-114.87 53.83-21.38 0-40.78-4.23-58.18-12.8-17.28-8.45-35.68-23-54.82-43.64v193.69h-102.19V490.28zm100.7 187.6c0 43.63 8.58 75.84 25.86 96.72 17.16 20.76 38.16 31.2 62.78 31.2 23.75 0 43.51-9.57 59.3-28.72s23.62-50.48 23.62-94.11c0-40.78-8.08-70.99-24.37-90.75-16.16-19.77-36.3-29.59-60.3-29.59-24.99 0-45.75 9.7-62.16 29.09-16.53 19.39-24.74 48.11-24.74 86.16zm700.3 2.61 104.43 32.08c-16.04 58.8-42.77 102.44-80.06 131.03-37.3 28.47-84.54 42.77-141.85 42.77-70.99 0-129.29-24.24-175.04-72.73-45.63-48.49-68.5-114.75-68.5-198.91 0-88.89 23-158.01 68.87-207.24 45.88-49.23 106.3-73.85 181.14-73.85 65.39 0 118.48 19.4 159.26 58.06 24.37 22.88 42.52 55.7 54.7 98.59l-106.67 25.36c-6.34-27.6-19.52-49.48-39.54-65.52-20.14-16.04-44.51-23.99-73.1-23.99-39.66 0-71.86 14.17-96.47 42.64-24.74 28.34-37.05 74.34-37.05 138 0 67.38 12.19 115.49 36.43 144.09 24.37 28.72 55.95 43.02 94.86 43.02 28.72 0 53.46-9.07 74.1-27.35 20.64-18.27 35.56-46.87 44.51-86.03zm198.54-337.16h108.16v443.83h208.12V343.33h108.16v443.83h44.76v206.62h-90.26V877.42h-378.93V343.34zm488.58 0h121.46l124.32 276.49 106.42-276.49h112.51l-180.64 405.91c-19.64 44.01-39.66 77.45-60.05 100.45s-46.62 34.44-78.94 34.44c-31.83 0-56.69-2.11-74.59-6.22V797.6c15.29 1 29.09 1.49 41.4 1.49 24.86 0 42.77-4.6 53.58-13.68 10.69-9.2 21.13-28.97 30.95-59.18L4678.6 343.32z" style="fill:#fefefe;fill-rule:nonzero"/></g></svg>
