<svg xmlns="http://www.w3.org/2000/svg" xml:space="preserve" width="299" height="38" style="shape-rendering:geometricPrecision;text-rendering:geometricPrecision;image-rendering:optimizeQuality;fill-rule:evenodd;clip-rule:evenodd" viewBox="0 0 7.97 1.01"><defs><style>.fil3{fill:#fff}.fil1{fill:#2b2b2a}</style></defs><g id="Слой_x0020_1"><path d="M4.68.79c-.05.04-.14.07-.23.07-.22 0-.36-.13-.36-.33 0-.17.11-.32.36-.32.09 0 .17.03.21.06L4.6.38a.334.334 0 0 0-.15-.03c-.12 0-.21.06-.21.18 0 .11.09.19.22.19.06 0 .11-.01.16-.04l.06.11zM4.8.22h.44v.13h-.29v.11h.26V.6h-.26v.11h.3v.14H4.8V.22zm1.1.63L5.54.46v.39H5.4V.22h.12l.36.39V.22h.14v.63H5.9zm.22-.63h.59v.13h-.22v.5h-.15v-.5h-.22V.22zm.69 0h.44v.13h-.29v.11h.26V.6h-.26v.11h.3v.14h-.45V.22zm.61.63V.22c.03 0 .14-.01.21-.01.21 0 .28.1.28.22 0 .11-.07.16-.12.18l.18.24h-.18l-.15-.2h-.08v.2h-.14zm.14-.5v.16h.08c.06 0 .11-.03.11-.08 0-.04-.02-.08-.11-.08h-.08z" style="fill:#000;fill-rule:nonzero"/><path class="fil1" d="M.5 1C.78 1 1 .77 1 .5 1 .22.78 0 .5 0S0 .22 0 .5c0 .27.22.5.5.5z"/><path d="M1.76 0c-.27 0-.5.23-.5.5 0 .28.23.5.5.5.28 0 .51-.22.51-.5 0-.27-.23-.5-.51-.5zm.01.22c.09 0 .16.06.16.15 0 .05-.02.08-.06.12l-.14.17h.2v.08h-.31V.66l.19-.23c.02-.02.02-.04.02-.06 0-.04-.02-.06-.06-.06-.03 0-.06.01-.06.07h-.1c0-.1.07-.16.16-.16z" style="fill:#e31e2d"/><path class="fil1" d="M.61.38C.61.34.57.32.53.32H.47v.13h.06C.57.45.61.43.61.38zm.01.21C.62.55.59.53.53.53H.47v.13h.06C.59.66.62.64.62.59z"/><path class="fil3" d="M.5.32c.05 0 .08.02.08.06C.58.43.55.45.5.45H.44V.32H.5zm.1.15C.64.45.67.42.67.36.67.29.62.23.5.23.45.23.38.24.35.24v.5c.03 0 .1.01.15.01C.6.75.69.7.69.59.69.53.65.49.6.48V.47zM.44.53h.07C.56.53.6.55.6.59.6.64.56.66.5.66H.44V.53zM1.93.37c0-.09-.07-.15-.16-.15s-.16.06-.16.16h.1c0-.06.03-.07.06-.07.04 0 .06.02.06.06 0 .02 0 .04-.02.06l-.19.23v.08h.31V.66h-.2l.14-.17c.04-.04.06-.07.06-.12z"/><path class="fil1" d="M3.05 1.01a.495.495 0 1 0 0-.99.495.495 0 1 0 0 .99z"/><path class="fil1" d="M3.15.4c0-.04-.03-.06-.08-.06h-.05v.13h.06c.04 0 .07-.03.07-.07zm.02.21c0-.04-.03-.07-.09-.07h-.06v.14h.06c.06 0 .09-.02.09-.07z"/><path class="fil3" d="M3.05.34c.05 0 .08.02.08.06 0 .04-.04.07-.08.07h-.06V.34h.06zm.09.15c.05-.02.08-.05.08-.11 0-.07-.05-.13-.17-.13-.05 0-.12 0-.15.01v.5h.14c.11 0 .19-.04.19-.15 0-.07-.03-.1-.09-.12zm-.15.05h.07c.05 0 .08.03.08.07 0 .05-.03.07-.09.07h-.06V.54z"/></g></svg>