<svg xmlns="http://www.w3.org/2000/svg" xml:space="preserve" width="2178" height="269" style="shape-rendering:geometricPrecision;text-rendering:geometricPrecision;image-rendering:optimizeQuality;fill-rule:evenodd;clip-rule:evenodd" viewBox="0 0 497.62 61.56"><path d="M93.21.41C72.97.07 80.71-2.73 61.14 15.7L36.45 39.52c-11.79 9.06-29.74-3.88-23.2-18.49 2.1-4.69 7.97-9.43 15.2-8.98 9.03.56 10.19 5.68 14.26 10.68l8.77-8.18C48.8 7.83 40.61 1.67 32.04.39.63-4.28-12.99 37.8 15.79 51.8c21.09 10.26 35.5-9.77 43.73-17.71C66.08 27.76 89.31 6.1 93.21.41zM50.04 54.22c14.05.05 14.12 2.12 20.58-4.32 7.39-7.36 32.19-32.77 36.73-35.53 12.94-7.87 28.68 5.56 22.17 19.27-5.99 12.63-23.34 11.8-28.73-2.03-2.99 1.55-7.2 5.94-9.23 8.58 6.57 15.15 31.42 19.2 43.99 6.18 14.19-14.68 7.1-36.64-8.74-43.8-21.09-9.54-35.29 9.95-43.62 18.07-5.98 5.83-10.57 9.96-16.63 16.66-4.44 4.9-14.35 12.94-16.52 16.92z" style="fill:#4fa8c7"/><path d="M181.43 9.46V4.68h8.85v4.78c2.58.08 4.85.41 6.82.97 1.96.58 3.67 1.32 5.09 2.23 1.44.91 2.64 1.95 3.59 3.1a15.96 15.96 0 0 1 2.32 3.62c.59 1.26 1 2.54 1.23 3.81.24 1.27.36 2.46.36 3.59 0 2.4-.45 4.63-1.36 6.69a15.82 15.82 0 0 1-3.89 5.36c-1.69 1.53-3.73 2.75-6.13 3.65-2.39.92-5.07 1.45-8.03 1.58v4.82h-8.85v-4.82c-2.96-.13-5.64-.66-8.03-1.58-2.4-.9-4.45-2.12-6.13-3.65a15.956 15.956 0 0 1-3.89-5.36c-.91-2.06-1.36-4.29-1.36-6.69 0-1.13.11-2.32.36-3.59.23-1.27.64-2.55 1.23-3.81a15.96 15.96 0 0 1 2.32-3.62c.95-1.15 2.16-2.19 3.6-3.1 1.45-.91 3.14-1.65 5.1-2.23 1.95-.56 4.22-.89 6.8-.97zm-3.66 27.57c1.24.42 2.46.63 3.66.63v-21.8c-2.1.06-3.84.43-5.21 1.12-1.38.68-2.45 1.53-3.24 2.56a9.066 9.066 0 0 0-1.67 3.36c-.3 1.22-.45 2.41-.43 3.57 0 2.04.33 3.75.98 5.17.66 1.41 1.49 2.56 2.49 3.45 1.02.9 2.16 1.54 3.42 1.94zm12.51-21.17V37.6c1.2 0 2.42-.21 3.68-.62a9.746 9.746 0 0 0 3.4-1.95c1-.89 1.84-2.05 2.49-3.48.65-1.41.98-3.14.98-5.16 0-1.15-.16-2.32-.46-3.54a9.038 9.038 0 0 0-1.68-3.33c-.8-1.01-1.87-1.86-3.23-2.54-1.35-.69-3.08-1.06-5.18-1.12zm40.28 12.57c.3-.04.63-.1.98-.18.35-.08.68-.22.98-.4.29-.2.55-.45.74-.78.21-.34.3-.78.3-1.35 0-.54-.08-1.03-.24-1.48-.18-.46-.47-.84-.87-1.17-.4-.33-.93-.59-1.61-.77-.66-.18-1.51-.27-2.5-.27-1.15 0-2.06.11-2.75.34-.7.23-1.24.55-1.64.96-.4.41-.69.9-.87 1.45a8.86 8.86 0 0 0-.39 1.76h-8.51c0-.4.06-.96.19-1.67.14-.72.37-1.49.72-2.33.35-.84.84-1.69 1.48-2.55.63-.86 1.46-1.65 2.49-2.36 1.03-.72 2.29-1.31 3.78-1.77 1.48-.46 3.25-.69 5.31-.72 2.93 0 5.3.3 7.12.89 1.81.59 3.22 1.36 4.23 2.32 1.02.95 1.7 2.01 2.05 3.18.35 1.18.53 2.34.53 3.51v17.37c0 .99.05 1.79.16 2.42.11.63.26 1.13.43 1.5.19.38.39.65.62.82.24.17.48.29.74.37v1.36h-9.41c-.16-.38-.34-.89-.52-1.52-.2-.63-.29-1.4-.29-2.3-.67.67-1.31 1.31-1.94 1.89-.64.58-1.33 1.08-2.12 1.51-.78.44-1.69.78-2.7 1.03-1.03.25-2.26.38-3.71.38-1.46 0-2.81-.22-4.04-.65-1.23-.43-2.3-1.06-3.2-1.9-.91-.85-1.6-1.9-2.11-3.17-.5-1.26-.75-2.73-.75-4.39 0-1.34.22-2.58.64-3.73a9.327 9.327 0 0 1 1.79-3.04c.77-.87 1.71-1.6 2.82-2.17 1.12-.57 2.36-.96 3.74-1.15l8.33-1.24zm-6.19 15.15c.52.16 1.08.25 1.68.25.32 0 .73-.04 1.23-.11.51-.07 1.04-.2 1.59-.41.57-.2 1.13-.47 1.69-.83.56-.35 1.06-.8 1.5-1.36.45-.57.8-1.24 1.08-2.07.29-.81.42-1.76.42-2.86v-3.31c-.51.28-1.03.54-1.56.77-.52.23-1.21.43-2.07.58l-2.26.42c-.97.19-1.83.39-2.58.64-.74.23-1.36.55-1.85.94-.49.39-.86.87-1.11 1.43-.26.56-.38 1.26-.38 2.1 0 .71.11 1.32.33 1.83.23.5.53.92.92 1.26.39.33.84.58 1.37.73zm45.52-38.59c.46-.27.75-.54.87-.82h7.7c.02 1.69-.28 3.06-.87 4.13a7.385 7.385 0 0 1-2.4 2.59c-.99.65-2.13 1.12-3.42 1.41-1.3.29-2.63.48-3.98.59-.95.08-1.92.2-2.93.38-.99.16-1.98.43-2.94.78-.97.35-1.87.81-2.73 1.38a9.7 9.7 0 0 0-2.32 2.12c-.68.84-1.24 1.84-1.69 3-.44 1.17-.7 2.53-.81 4.1.32-1.05.83-2.03 1.53-2.97.71-.93 1.58-1.74 2.64-2.43 1.05-.7 2.27-1.24 3.65-1.65 1.38-.41 2.92-.62 4.6-.62 2.25 0 4.27.37 6.08 1.12 1.79.76 3.33 1.82 4.59 3.18 1.26 1.36 2.23 3.01 2.91 4.93.66 1.93 1 4.06 1 6.4 0 2.61-.39 4.97-1.16 7.09-.77 2.13-1.88 3.95-3.3 5.46-1.44 1.52-3.18 2.69-5.26 3.52-2.06.83-4.38 1.25-6.96 1.25-3.77 0-6.89-.78-9.35-2.32-2.47-1.54-4.36-4.06-5.69-7.54a22.18 22.18 0 0 1-1.02-3.77c-.24-1.32-.41-2.56-.53-3.72-.11-1.16-.17-2.18-.19-3.04-.02-.86-.03-1.42-.03-1.71 0-3.12.36-5.98 1.09-8.58.71-2.6 1.86-4.85 3.43-6.78 1.57-1.92 3.61-3.48 6.08-4.66 2.47-1.18 5.47-1.93 9-2.26 1.13-.09 1.93-.29 2.41-.56zm-4.91 18.3c-1.46 0-2.7.25-3.74.74a6.878 6.878 0 0 0-2.54 1.99c-.66.84-1.15 1.83-1.44 2.94-.3 1.11-.45 2.29-.45 3.53 0 1.24.13 2.47.41 3.68.26 1.21.71 2.3 1.33 3.25.63.95 1.44 1.72 2.43 2.3 1.01.58 2.24.87 3.71.87 1.54 0 2.82-.28 3.82-.86a6.669 6.669 0 0 0 2.43-2.25c.6-.93 1.02-2.01 1.26-3.22.24-1.21.36-2.47.36-3.77 0-1.29-.14-2.49-.42-3.61-.28-1.12-.72-2.1-1.33-2.93-.59-.83-1.37-1.48-2.34-1.95-.96-.47-2.12-.71-3.49-.71zm34.43-6.79c.78-.46 1.64-.8 2.6-1.03.95-.21 2.03-.33 3.23-.33 1.01 0 2.03.13 3.1.36 1.06.24 2.09.63 3.11 1.16 1.01.54 1.97 1.22 2.87 2.08.91.85 1.7 1.89 2.37 3.14.69 1.24 1.22 2.68 1.62 4.34.4 1.66.61 3.55.61 5.67 0 2.65-.29 5.07-.86 7.28-.57 2.2-1.43 4.09-2.59 5.67a11.91 11.91 0 0 1-4.35 3.71c-1.75.88-3.82 1.32-6.18 1.32-.82 0-1.66-.08-2.5-.25-.84-.15-1.66-.43-2.46-.81a8.98 8.98 0 0 1-2.27-1.55c-.71-.64-1.34-1.46-1.88-2.45h-.12v16.75h-8.51V16.11h8.12v4.69h.12c.58-.99 1.19-1.84 1.84-2.55a8.88 8.88 0 0 1 2.13-1.75zm-1.35 24.29c.53.54 1.19.97 1.95 1.3.76.34 1.66.5 2.71.5 1.03 0 1.94-.16 2.7-.5a6.27 6.27 0 0 0 1.96-1.3c.54-.55.98-1.16 1.33-1.87.35-.7.63-1.43.83-2.17.2-.75.34-1.5.4-2.23.07-.73.11-1.41.11-2.03 0-1.14-.13-2.29-.39-3.46-.26-1.16-.67-2.2-1.25-3.12a6.907 6.907 0 0 0-2.27-2.26c-.94-.58-2.08-.87-3.42-.87-1.37 0-2.52.29-3.45.87a7.14 7.14 0 0 0-2.25 2.26c-.57.92-.99 1.96-1.25 3.12-.26 1.17-.39 2.32-.39 3.46 0 .62.03 1.3.1 2.03.07.73.21 1.48.41 2.23.2.74.47 1.47.82 2.17.35.71.8 1.32 1.35 1.87zm48 8.09V29.12h-.14l-11.58 19.76h-9.28V16.11h8.5V36.3h.12l11.93-20.19h8.94v32.77h-8.49zm49.5 0h-11.1l-9.62-13.84-3.43 3.46v10.38h-8.51V16.11h8.51v12.45l12.26-12.45h11.31l-13.52 13.62 14.1 19.15zm19.68-20.45c.31-.04.63-.1.98-.18.35-.08.68-.22.98-.4.29-.2.55-.45.75-.78.2-.34.29-.78.29-1.35 0-.54-.08-1.03-.24-1.48-.18-.46-.46-.84-.86-1.17-.4-.33-.94-.59-1.62-.77-.66-.18-1.5-.27-2.5-.27-1.15 0-2.06.11-2.75.34-.7.23-1.24.55-1.64.96-.4.41-.69.9-.87 1.45a8.86 8.86 0 0 0-.39 1.76h-8.51c0-.4.06-.96.19-1.67.14-.72.37-1.49.72-2.33.35-.84.84-1.69 1.48-2.55.63-.86 1.46-1.65 2.49-2.36 1.03-.72 2.29-1.31 3.78-1.77 1.48-.46 3.25-.69 5.32-.72 2.92 0 5.29.3 7.11.89 1.81.59 3.22 1.36 4.24 2.32 1.01.95 1.69 2.01 2.04 3.18.35 1.18.53 2.34.53 3.51v17.37c0 .99.05 1.79.17 2.42.1.63.25 1.13.43 1.5.18.38.39.65.61.82.24.17.48.29.74.37v1.36h-9.41c-.16-.38-.34-.89-.52-1.52-.2-.63-.29-1.4-.29-2.3-.67.67-1.31 1.31-1.94 1.89-.64.58-1.33 1.08-2.12 1.51-.78.44-1.69.78-2.7 1.03-1.03.25-2.26.38-3.71.38-1.45 0-2.81-.22-4.04-.65-1.23-.43-2.3-1.06-3.2-1.9-.9-.85-1.6-1.9-2.11-3.17-.5-1.26-.74-2.73-.74-4.39 0-1.34.21-2.58.63-3.73a9.327 9.327 0 0 1 1.79-3.04c.77-.87 1.71-1.6 2.82-2.17 1.12-.57 2.36-.96 3.74-1.15l8.33-1.24zm-6.19 15.15c.52.16 1.08.25 1.68.25.32 0 .73-.04 1.23-.11.51-.07 1.04-.2 1.59-.41.57-.2 1.13-.47 1.69-.83.56-.35 1.06-.8 1.51-1.36.44-.57.8-1.24 1.07-2.07.29-.81.42-1.76.42-2.86v-3.31c-.51.28-1.03.54-1.56.77-.52.23-1.21.43-2.07.58l-2.26.42c-.97.19-1.83.39-2.58.64-.74.23-1.36.55-1.85.94-.49.39-.86.87-1.11 1.43-.25.56-.38 1.26-.38 2.1 0 .71.12 1.32.33 1.83.23.5.53.92.92 1.26.39.33.85.58 1.37.73zm46.47-8.74h-12.49v14.04h-8.51V16.11h8.51v11.84h12.49V16.11h8.49v32.77h-8.49V34.84zm42.1-18.73v6.91h-9.92v25.86h-8.48V23.02h-9.92v-6.91h28.32z" style="fill:#2b2b2a;fill-rule:nonzero"/></svg>