<svg xmlns="http://www.w3.org/2000/svg" xml:space="preserve" width="402" height="66" style="shape-rendering:geometricPrecision;text-rendering:geometricPrecision;image-rendering:optimizeQuality;fill-rule:evenodd;clip-rule:evenodd" viewBox="0 0 32.45 5.33"><path d="M1.73 4.36c.21 0 .38-.02.51-.07.25-.1.37-.28.37-.54 0-.16-.06-.27-.19-.36-.12-.08-.31-.15-.57-.22l-.45-.11C.97 2.95.66 2.83.49 2.7c-.28-.21-.42-.55-.42-1 0-.42.14-.77.41-1.04.27-.28.68-.42 1.21-.42.44 0 .82.13 1.14.39.31.26.48.64.49 1.14h-.85c-.01-.28-.12-.48-.33-.6a.987.987 0 0 0-.51-.12c-.23 0-.41.05-.54.15-.14.1-.21.25-.21.43 0 .16.07.29.2.37.09.05.27.12.55.19l.73.2c.32.08.56.19.72.33.25.22.38.54.38.96 0 .42-.15.77-.44 1.06-.3.28-.72.42-1.25.42-.55 0-.98-.14-1.3-.42C.16 4.47 0 4.08 0 3.6h.84c.03.21.08.37.16.48.14.19.39.28.73.28zM7.04 3H5v1.2h2.33v.84H4.14V.38h3.09v.82H5v.99h2.04V3zM11.08.38v.82H9.82v3.84h-.89V1.2H7.66V.38h3.42z" style="fill:#de4c4e;fill-rule:nonzero"/><path d="M14.31 2.09c.31.38.46.82.46 1.34 0 .52-.15.97-.46 1.34-.31.37-.78.56-1.41.56-.63 0-1.1-.19-1.41-.56-.31-.37-.47-.82-.47-1.34 0-.52.16-.96.47-1.34.31-.38.78-.56 1.41-.56.63 0 1.1.18 1.41.56zm-1.42.22c-.28 0-.49.1-.64.29-.16.2-.23.47-.23.83s.07.63.23.83c.15.19.36.29.64.29s.5-.1.65-.29c.15-.2.22-.47.22-.83s-.07-.63-.22-.83c-.15-.19-.37-.29-.65-.29zm4.29.02c-.32 0-.55.13-.67.4-.06.14-.09.32-.09.54V5.2h-.96V1.65h.93v.52c.12-.19.24-.32.35-.4.2-.14.45-.21.75-.21.38 0 .69.09.93.29.24.19.36.51.36.95v2.4h-.98V3.04c0-.19-.03-.33-.08-.43-.09-.19-.27-.28-.54-.28zm2.5-1.94h.96V5.2h-.96V.39zm2.88 1.25V5.2h-.97V1.64h.97zm2.66.69c-.33 0-.55.13-.67.4-.07.14-.1.32-.1.54V5.2h-.95V1.65h.92v.52c.13-.19.24-.32.35-.4.2-.14.45-.21.75-.21.38 0 .69.09.93.29.24.19.36.51.36.95v2.4h-.98V3.04c0-.19-.02-.33-.08-.43-.09-.19-.27-.28-.53-.28zm5.62 1.83c-.03.21-.14.42-.34.64-.32.35-.76.52-1.32.52-.47 0-.88-.14-1.24-.44-.35-.29-.53-.76-.53-1.42 0-.62.16-1.09.48-1.42.32-.33.74-.49 1.25-.49.31 0 .58.05.83.16.24.11.45.29.6.53.15.21.24.46.28.73.03.17.04.4.03.71h-2.5c.01.36.12.61.34.75.13.09.29.14.48.14.2 0 .36-.06.48-.17.07-.06.13-.14.18-.24h.98zm-.95-1.09c-.02-.25-.09-.44-.23-.56a.733.733 0 0 0-.52-.2c-.22 0-.39.07-.51.21-.12.13-.2.32-.23.55h1.49z" style="fill:#2b2b2a;fill-rule:nonzero"/><path d="M22.08 0c.34 0 .62.28.62.62 0 .34-.28.61-.62.61-.34 0-.61-.27-.61-.61 0-.34.27-.62.61-.62zm9.76 4.01c.34 0 .61.28.61.62 0 .34-.27.62-.61.62-.34 0-.62-.28-.62-.62 0-.34.28-.62.62-.62z" style="fill:#d93f43"/></svg>